<svg version="1.2" baseProfile="tiny-ps" xmlns="http://www.w3.org/2000/svg" viewBox="0 0 212 156" width="212" height="156">
	<title>Web 1920 – 6</title>
	<style>
		tspan { white-space:pre }
		.shp0 { fill: #ffb8b8 } 
		.shp1 { fill: #3f3d56 } 
		.shp2 { fill: #d0cde1 } 
		.shp3 { fill: #6c63ff } 
		.shp4 { fill: #575a89 } 
		.shp5 { fill: #ff6584 } 
		.shp6 { fill: #2f2e41 } 
		.shp7 { opacity: 0.149;fill: #000000 } 
		.shp8 { fill: #a0616a } 
	</style>
	<g id="Web 1920 – 6">
		<g id="Group 26644">
			<path id="Path 25846" class="shp0" d="M150.69 115.87L149.43 120.36L154.62 120.36C153.87 118.58 153.69 116.9 154.33 115.35L150.69 115.87Z" />
			<path id="Path 25847" class="shp1" d="M211.38 155.12C211.38 155.19 211.38 155.26 211.38 155.33L0.84 155.33C0.84 155.26 0.84 155.19 0.84 155.12C0.84 144.44 47.97 135.79 106.11 135.79C164.25 135.79 211.38 144.44 211.38 155.12Z" />
			<path id="Ellipse 280" class="shp2" d="M176.93 145.33C170.46 145.33 165.23 140.11 165.23 133.64C165.23 127.17 170.46 121.94 176.93 121.94C183.4 121.94 188.63 127.17 188.63 133.64C188.63 140.11 183.4 145.33 176.93 145.33Z" />
			<path id="Ellipse 281" class="shp3" d="M177.57 128.32C173.22 128.32 169.7 126.89 169.7 125.13C169.7 123.37 173.22 121.94 177.57 121.94C181.92 121.94 185.44 123.37 185.44 125.13C185.44 126.89 181.92 128.32 177.57 128.32Z" />
			<path id="Ellipse 282" class="shp2" d="M177.99 125.34C173.88 125.34 170.55 122.02 170.55 117.9C170.55 113.78 173.88 110.46 177.99 110.46C182.11 110.46 185.44 113.78 185.44 117.9C185.44 122.02 182.11 125.34 177.99 125.34Z" />
			<path id="Ellipse 283" class="shp4" d="M175.73 116.49C175.1 116.49 174.59 115.98 174.59 115.35C174.59 114.72 175.1 114.21 175.73 114.21C176.36 114.21 176.87 114.72 176.87 115.35C176.87 115.98 176.36 116.49 175.73 116.49Z" />
			<path id="Ellipse 284" class="shp4" d="M179.62 116.49C178.99 116.49 178.48 115.98 178.48 115.35C178.48 114.72 178.99 114.21 179.62 114.21C180.25 114.21 180.76 114.72 180.76 115.35C180.76 115.98 180.25 116.49 179.62 116.49Z" />
			<path id="Path 25848" class="shp5" d="M177.36 116.84L177.05 120.56C177.04 120.64 177.09 120.7 177.16 120.71C177.23 120.73 177.3 120.68 177.32 120.61L178.42 116.84L177.36 116.84Z" />
			<path id="Path 25849" class="shp4" d="M170.66 148.98L169.31 150.33L161.83 141.51L162.01 140.33L170.66 148.98Z" />
			<path id="Path 25850" class="shp4" d="M164.81 144.7L164.81 145.55L158 145.12L157.36 144.7L164.81 144.7Z" />
			<path id="Ellipse 285" class="shp2" d="M170.13 132.36C169.07 132.36 168.21 131.41 168.21 130.23C168.21 129.06 169.07 128.11 170.13 128.11C171.18 128.11 172.04 129.06 172.04 130.23C172.04 131.41 171.18 132.36 170.13 132.36Z" />
			<path id="Path 25851" class="shp4" d="M186.18 130.05L187.53 131.41L195.01 122.58L194.83 121.41L186.18 130.05Z" />
			<path id="Path 25852" class="shp4" d="M190.12 126.83L190.12 127.68L196.92 127.26L197.56 126.83L190.12 126.83Z" />
			<path id="Ellipse 286" class="shp2" d="M186.71 132.36C185.66 132.36 184.8 131.41 184.8 130.23C184.8 129.06 185.66 128.11 186.71 128.11C187.77 128.11 188.63 129.06 188.63 130.23C188.63 131.41 187.77 132.36 186.71 132.36Z" />
			<path id="Ellipse 287" class="shp4" d="M177.57 131.94C177.1 131.94 176.72 131.55 176.72 131.08C176.72 130.61 177.1 130.23 177.57 130.23C178.04 130.23 178.42 130.61 178.42 131.08C178.42 131.55 178.04 131.94 177.57 131.94Z" />
			<path id="Ellipse 288" class="shp4" d="M177.57 134.7C177.1 134.7 176.72 134.32 176.72 133.85C176.72 133.38 177.1 133 177.57 133C178.04 133 178.42 133.38 178.42 133.85C178.42 134.32 178.04 134.7 177.57 134.7Z" />
			<path id="Ellipse 289" class="shp4" d="M177.57 137.46C177.1 137.46 176.72 137.08 176.72 136.61C176.72 136.14 177.1 135.76 177.57 135.76C178.04 135.76 178.42 136.14 178.42 136.61C178.42 137.08 178.04 137.46 177.57 137.46Z" />
			<path id="Path 25853" class="shp2" d="M140.8 138.74C140.89 136.8 139.73 135.03 137.91 134.35C136.1 133.67 134.05 134.24 132.85 135.75C132.38 135.03 131.7 134.46 130.91 134.11C131.44 132.12 130.53 130.03 128.72 129.05C126.92 128.06 124.67 128.45 123.29 129.97C122.23 128.92 120.97 128.12 119.57 127.6C119.93 125.35 118.53 123.2 116.34 122.6C114.14 122 111.84 123.15 111.01 125.27C109.39 124.15 107.23 124.22 105.69 125.44C104.15 126.66 103.59 128.76 104.32 130.58C103.79 130.78 103.31 131.07 102.89 131.44C100.78 130.66 98.41 131.58 97.38 133.59C96.98 133.14 96.49 132.78 95.94 132.52C95.95 132.41 95.97 132.3 95.97 132.19C96.05 130.49 95.16 128.9 93.67 128.07C92.18 127.25 90.36 127.34 88.96 128.32C87.56 129.29 86.84 130.97 87.09 132.65C85 133.22 83.63 135.21 83.86 137.37C78.85 137.52 74.01 137.75 69.39 138.07C68.23 134 64.72 131.03 60.51 130.57C56.3 130.11 52.22 132.24 50.21 135.97C48.62 134.76 46.42 134.76 44.83 135.96C43.24 137.15 42.63 139.26 43.35 141.12C43.14 141.16 42.94 141.2 42.74 141.23C42.75 141.16 42.76 141.09 42.76 141.01C42.88 138.55 40.97 136.46 38.51 136.34C36.04 136.23 33.95 138.13 33.84 140.6C33.84 140.64 33.84 140.69 33.84 140.74C33.01 140.42 32.08 140.52 31.34 141.01C30.6 141.5 30.14 142.31 30.1 143.19C30.08 143.54 140.79 138.91 140.8 138.74Z" />
			<path id="Path 25854" class="shp6" d="M2.32 72.13C2.33 72.11 2.33 72.09 2.34 72.07C2.34 72.08 2.33 72.09 2.33 72.1L2.32 72.13Z" />
			<path id="Path 25855" class="shp1" d="M104.03 130.11L119.78 106.68L104.06 132.63L104.1 135.26C102.95 135.27 101.81 135.25 100.68 135.21L101.46 101.32L101.44 101.06L101.47 101.01L101.54 97.81L84.29 72.76L101.52 95.41L101.59 96.09L102.18 70.49L87.28 44.52L102.22 65.99L102.06 12.96L102.06 12.78L102.07 12.95L103.06 54.75L116.64 37.77L103.1 58.35L103.4 81.25L115.89 58.9L103.44 84.62L103.61 97.35L121.78 66.22L103.66 101.79L104.03 130.11Z" />
			<path id="Ellipse 290" class="shp2" d="M100.58 65.16C99.64 65.16 98.88 64.4 98.88 63.45C98.88 62.51 99.64 61.75 100.58 61.75C101.52 61.75 102.28 62.51 102.28 63.45C102.28 64.4 101.52 65.16 100.58 65.16Z" />
			<path id="Ellipse 291" class="shp2" d="M111.64 91.1C110.7 91.1 109.94 90.34 109.94 89.4C109.94 88.46 110.7 87.7 111.64 87.7C112.58 87.7 113.34 88.46 113.34 89.4C113.34 90.34 112.58 91.1 111.64 91.1Z" />
			<path id="Ellipse 292" class="shp2" d="M97.18 96.84C96.24 96.84 95.48 96.08 95.48 95.14C95.48 94.2 96.24 93.44 97.18 93.44C98.12 93.44 98.88 94.2 98.88 95.14C98.88 96.08 98.12 96.84 97.18 96.84Z" />
			<path id="Ellipse 293" class="shp2" d="M91.65 70.26C90.71 70.26 89.95 69.5 89.95 68.56C89.95 67.62 90.71 66.86 91.65 66.86C92.59 66.86 93.35 67.62 93.35 68.56C93.35 69.5 92.59 70.26 91.65 70.26Z" />
			<path id="Path 25856" class="shp2" d="M103.13 65.16C103.13 64.54 102.8 63.98 102.27 63.67C102.38 62.83 101.84 62.03 101.01 61.81C100.19 61.59 99.33 62.02 99 62.82C98.68 63.61 99 64.52 99.75 64.94C99.68 65.38 99.81 65.83 100.08 66.19C99.75 66.95 100.02 67.83 100.72 68.29C101.41 68.74 102.33 68.63 102.89 68.02C103.46 67.41 103.5 66.48 103 65.83C103.09 65.61 103.13 65.39 103.13 65.16Z" />
			<path id="Path 25857" class="shp2" d="M106.32 47.93C105.38 47.93 104.62 48.69 104.62 49.63C103.84 49.63 103.16 50.16 102.97 50.92C102.11 51 101.45 51.71 101.43 52.57C101.41 53.44 102.05 54.18 102.9 54.29C103.76 54.41 104.57 53.86 104.78 53.03C105.65 52.94 106.32 52.21 106.32 51.33C107.26 51.33 108.02 50.57 108.02 49.63C108.02 48.69 107.26 47.93 106.32 47.93Z" />
			<path id="Ellipse 294" class="shp2" d="M70.38 76.64C69.68 76.64 69.11 76.07 69.11 75.36C69.11 74.66 69.68 74.09 70.38 74.09C71.09 74.09 71.66 74.66 71.66 75.36C71.66 76.07 71.09 76.64 70.38 76.64Z" />
			<path id="Ellipse 295" class="shp2" d="M84.21 91.95C83.5 91.95 82.93 91.38 82.93 90.68C82.93 89.97 83.5 89.4 84.21 89.4C84.91 89.4 85.48 89.97 85.48 90.68C85.48 91.38 84.91 91.95 84.21 91.95Z" />
			<path id="Ellipse 296" class="shp2" d="M146.31 33.47C145.36 33.47 144.6 32.71 144.6 31.77C144.6 30.83 145.36 30.07 146.31 30.07C147.25 30.07 148.01 30.83 148.01 31.77C148.01 32.71 147.25 33.47 146.31 33.47Z" />
			<path id="Ellipse 297" class="shp2" d="M159.28 13.48C158.57 13.48 158 12.91 158 12.2C158 11.5 158.57 10.92 159.28 10.92C159.98 10.92 160.55 11.5 160.55 12.2C160.55 12.91 159.98 13.48 159.28 13.48Z" />
			<path id="Ellipse 298" class="shp2" d="M173.1 28.79C172.4 28.79 171.83 28.22 171.83 27.51C171.83 26.81 172.4 26.24 173.1 26.24C173.81 26.24 174.38 26.81 174.38 27.51C174.38 28.22 173.81 28.79 173.1 28.79Z" />
			<path id="Ellipse 299" class="shp2" d="M190.33 64.31C189.39 64.31 188.63 63.54 188.63 62.6C188.63 61.66 189.39 60.9 190.33 60.9C191.27 60.9 192.03 61.66 192.03 62.6C192.03 63.54 191.27 64.31 190.33 64.31Z" />
			<path id="Ellipse 300" class="shp2" d="M167.53 46.67C166.82 46.67 166.25 46.1 166.25 45.4C166.25 44.69 166.82 44.12 167.53 44.12C168.24 44.12 168.81 44.69 168.81 45.4C168.81 46.1 168.24 46.67 167.53 46.67Z" />
			<path id="Ellipse 301" class="shp2" d="M131.63 92.38C130.69 92.38 129.93 91.62 129.93 90.68C129.93 89.74 130.69 88.98 131.63 88.98C132.57 88.98 133.33 89.74 133.33 90.68C133.33 91.62 132.57 92.38 131.63 92.38Z" />
			<path id="Ellipse 302" class="shp2" d="M151.84 93.87C151.13 93.87 150.56 93.3 150.56 92.59C150.56 91.89 151.13 91.32 151.84 91.32C152.54 91.32 153.11 91.89 153.11 92.59C153.11 93.3 152.54 93.87 151.84 93.87Z" />
			<path id="Ellipse 303" class="shp2" d="M26.57 38.36C25.63 38.36 24.87 37.6 24.87 36.66C24.87 35.72 25.63 34.96 26.57 34.96C27.51 34.96 28.27 35.72 28.27 36.66C28.27 37.6 27.51 38.36 26.57 38.36Z" />
			<path id="Ellipse 304" class="shp2" d="M24.87 24.75C24.16 24.75 23.59 24.18 23.59 23.47C23.59 22.77 24.16 22.2 24.87 22.2C25.58 22.2 26.15 22.77 26.15 23.47C26.15 24.18 25.58 24.75 24.87 24.75Z" />
			<path id="Ellipse 305" class="shp2" d="M23.59 117.9C22.89 117.9 22.32 117.33 22.32 116.62C22.32 115.92 22.89 115.35 23.59 115.35C24.3 115.35 24.87 115.92 24.87 116.62C24.87 117.33 24.3 117.9 23.59 117.9Z" />
			<path id="Ellipse 306" class="shp2" d="M73.36 121.94C72.65 121.94 72.08 121.37 72.08 120.66C72.08 119.96 72.65 119.39 73.36 119.39C74.06 119.39 74.64 119.96 74.64 120.66C74.64 121.37 74.06 121.94 73.36 121.94Z" />
			<path id="Ellipse 307" class="shp2" d="M176.08 97.7C175.14 97.7 174.38 96.93 174.38 95.99C174.38 95.05 175.14 94.29 176.08 94.29C177.02 94.29 177.78 95.05 177.78 95.99C177.78 96.93 177.02 97.7 176.08 97.7Z" />
			<path id="Ellipse 308" class="shp2" d="M200.54 108.33C199.83 108.33 199.26 107.76 199.26 107.05C199.26 106.35 199.83 105.78 200.54 105.78C201.24 105.78 201.81 106.35 201.81 107.05C201.81 107.76 201.24 108.33 200.54 108.33Z" />
			<path id="Ellipse 309" class="shp2" d="M59.96 52.18C59.26 52.18 58.68 51.61 58.68 50.91C58.68 50.2 59.26 49.63 59.96 49.63C60.67 49.63 61.24 50.2 61.24 50.91C61.24 51.61 60.67 52.18 59.96 52.18Z" />
			<path id="Ellipse 310" class="shp2" d="M129.93 116.41C128.99 116.41 128.23 115.65 128.23 114.71C128.23 113.77 128.99 113.01 129.93 113.01C130.87 113.01 131.63 113.77 131.63 114.71C131.63 115.65 130.87 116.41 129.93 116.41Z" />
			<path id="Ellipse 311" class="shp2" d="M70.38 3.06C69.68 3.06 69.11 2.49 69.11 1.78C69.11 1.07 69.68 0.5 70.38 0.5C71.09 0.5 71.66 1.07 71.66 1.78C71.66 2.49 71.09 3.06 70.38 3.06Z" />
			<path id="Ellipse 312" class="shp2" d="M84.21 18.37C83.5 18.37 82.93 17.8 82.93 17.09C82.93 16.39 83.5 15.82 84.21 15.82C84.91 15.82 85.48 16.39 85.48 17.09C85.48 17.8 84.91 18.37 84.21 18.37Z" />
			<path id="Ellipse 313" class="shp2" d="M81.23 34.96C80.52 34.96 79.95 34.39 79.95 33.68C79.95 32.98 80.52 32.4 81.23 32.4C81.93 32.4 82.5 32.98 82.5 33.68C82.5 34.39 81.93 34.96 81.23 34.96Z" />
			<path id="Ellipse 314" class="shp2" d="M120.15 14.75C119.21 14.75 118.45 13.99 118.45 13.05C118.45 12.11 119.21 11.35 120.15 11.35C121.09 11.35 121.85 12.11 121.85 13.05C121.85 13.99 121.09 14.75 120.15 14.75Z" />
			<path id="Ellipse 315" class="shp2" d="M133.42 52.58C132.71 52.58 132.14 52 132.14 51.3C132.14 50.59 132.71 50.02 133.42 50.02C134.12 50.02 134.69 50.59 134.69 51.3C134.69 52 134.12 52.58 133.42 52.58Z" />
			<path id="Ellipse 316" class="shp2" d="M164.38 75.36C163.68 75.36 163.11 74.79 163.11 74.09C163.11 73.38 163.68 72.81 164.38 72.81C165.09 72.81 165.66 73.38 165.66 74.09C165.66 74.79 165.09 75.36 164.38 75.36Z" />
			<path id="Ellipse 317" class="shp2" d="M34.23 74.73C33.52 74.73 32.95 74.16 32.95 73.45C32.95 72.74 33.52 72.17 34.23 72.17C34.93 72.17 35.5 72.74 35.5 73.45C35.5 74.16 34.93 74.73 34.23 74.73Z" />
			<path id="Ellipse 318" class="shp2" d="M15.09 99.18C14.38 99.18 13.81 98.61 13.81 97.91C13.81 97.2 14.38 96.63 15.09 96.63C15.79 96.63 16.36 97.2 16.36 97.91C16.36 98.61 15.79 99.18 15.09 99.18Z" />
			<path id="Ellipse 319" class="shp2" d="M63.15 82.38C61.27 82.38 59.75 80.86 59.75 78.98C59.75 77.1 61.27 75.58 63.15 75.58C65.03 75.58 66.55 77.1 66.55 78.98C66.55 80.86 65.03 82.38 63.15 82.38Z" />
			<path id="Path 25858" class="shp0" d="M163.64 120.03L165.55 118.11L166.62 119.17L164.91 121.94L163.64 120.03Z" />
			<path id="Path 25859" class="shp5" d="M164.49 118.11L165.77 117.26C165.77 117.26 168.96 113.01 170.23 115.13C171.51 117.26 167.89 119.39 167.89 119.39L166.83 120.66L164.49 118.11Z" />
			<path id="Path 25860" class="shp7" d="M164.49 118.11L165.77 117.26C165.77 117.26 168.96 113.01 170.23 115.13C171.51 117.26 167.89 119.39 167.89 119.39L166.83 120.66L164.49 118.11Z" />
			<path id="Path 25861" class="shp3" d="M153 122.15L159.81 122.15L163.85 119.39L166.19 122.58L160.66 126.83L154.92 127.89L153 122.15Z" />
			<path id="Path 25862" class="shp7" d="M153 122.15L159.81 122.15L163.85 119.39L166.19 122.58L160.66 126.83L154.92 127.89L153 122.15Z" />
			<path id="Path 25863" class="shp6" d="M155.77 134.17C155.77 134.17 161.94 140.97 160.87 142.68C159.81 144.38 157.47 144.38 157.05 144.16C156.62 143.95 150.45 140.55 150.45 140.55L151.3 137.78C151.3 137.78 150.03 134.81 151.3 134.59C152.58 134.38 155.77 134.17 155.77 134.17Z" />
			<path id="Path 25864" class="shp6" d="M151.73 137.78C151.73 137.78 147.69 134.59 146.84 135.23C145.99 135.87 143.22 139.91 143.65 141.82C144.07 143.74 143.65 144.38 144.92 144.16C146.2 143.95 146.41 141.82 146.41 141.82L150.88 140.12L151.73 137.78Z" />
			<path id="Rectangle 23375" class="shp7" d="M152.95 138.51L153.06 138.33L157.74 141.31L157.63 141.49L152.95 138.51Z" />
			<path id="Ellipse 320" class="shp0" d="M153 117.15C151.24 117.15 149.81 115.73 149.81 113.96C149.81 112.2 151.24 110.77 153 110.77C154.77 110.77 156.2 112.2 156.2 113.96C156.2 115.73 154.77 117.15 153 117.15Z" />
			<path id="Path 25865" class="shp3" d="M149.18 117.58C149.18 117.58 148.33 119.71 148.33 124.81C148.33 129.91 145.35 132.25 147.69 134.81C150.03 137.36 159.25 135.74 159.25 135.74C159.25 135.74 159.15 135.82 159.17 135.66C159.39 134.17 157.05 118.64 156.2 118.43C155.34 118.22 149.18 117.58 149.18 117.58Z" />
			<path id="Path 25866" class="shp0" d="M163.64 116.52L165.55 114.6L166.62 115.67L164.91 118.43L163.64 116.52Z" />
			<path id="Path 25867" class="shp6" d="M146.93 113.71C146.23 113.82 145.45 113.9 144.95 114.11C144.3 114.39 144.33 114.82 144.51 115.19C144.69 115.55 144.97 115.94 144.67 116.3C144.5 116.51 144.15 116.69 143.87 116.88C143.59 117.07 143.39 117.29 143.55 117.5C143.72 117.72 144.25 117.87 144.61 118.05C145.4 118.44 145.41 119.03 144.64 119.43C145.3 119.03 146.58 118.85 147.74 118.68C148.91 118.51 150.17 118.28 150.66 117.84C151.16 117.4 150.69 116.88 150.95 116.41C151.17 116 151.9 115.67 152.47 115.32C153.05 114.97 153.51 114.53 153.13 114.15C152.85 113.86 152.13 113.61 152.26 113.31C152.35 113.12 152.74 112.98 153.03 112.83C153.31 112.67 153.47 112.44 153.11 112.31C151.81 112.54 150.49 112.77 149.21 113.01C148.42 113.17 147.95 113.71 146.93 113.71Z" />
			<path id="Path 25868" class="shp3" d="M153 118.64L159.81 118.64L163.85 115.88L166.19 119.07L160.66 123.32L154.92 124.39L153 118.64Z" />
			<path id="Path 25869" class="shp3" d="M170.21 117.47C170.21 117.47 176.16 114.5 176.16 113.43C176.16 112.37 173.82 109.18 169.57 109.18C169.57 109.18 168.51 107.27 167.23 108.75C165.96 110.24 167.87 111.31 167.87 111.31C167.87 111.31 165.53 115.13 168.93 117.47L170.21 117.47Z" />
			<path id="Ellipse 321" class="shp5" d="M118.02 82.6C116.14 82.6 114.62 81.07 114.62 79.19C114.62 77.31 116.14 75.79 118.02 75.79C119.9 75.79 121.42 77.31 121.42 79.19C121.42 81.07 119.9 82.6 118.02 82.6Z" />
			<path id="Path 25870" class="shp4" d="M115.77 79.24L114.8 77.94L114.97 77.81L115.8 78.93L117.28 77.67L118.76 78.94L120.04 77.66L121.39 79.01L121.24 79.16L120.04 77.96L118.77 79.23L117.28 77.95L115.77 79.24Z" />
			<path id="Path 25871" class="shp4" d="M115.56 80.92L114.59 79.63L114.74 79.52L115.59 80.65L117.06 79.39L118.55 80.66L119.83 79.38L121.17 80.72L121.04 80.85L119.83 79.64L118.56 80.91L117.06 79.63L115.56 80.92Z" />
			<path id="Rectangle 23376" class="shp4" d="M117.81 73.34L118.02 73.34L118.02 75.9L117.81 75.9L117.81 73.34Z" />
			<path id="Ellipse 322" class="shp5" d="M111.64 54.74C109.76 54.74 108.24 53.21 108.24 51.33C108.24 49.45 109.76 47.93 111.64 47.93C113.52 47.93 115.04 49.45 115.04 51.33C115.04 53.21 113.52 54.74 111.64 54.74Z" />
			<path id="Path 25872" class="shp4" d="M109.39 51.38L108.42 50.08L108.59 49.95L109.42 51.07L110.9 49.81L112.38 51.08L113.66 49.8L115.01 51.15L114.86 51.3L113.66 50.1L112.39 51.37L110.9 50.09L109.39 51.38Z" />
			<path id="Path 25873" class="shp4" d="M109.18 53.06L108.21 51.77L108.36 51.66L109.21 52.79L110.68 51.53L112.17 52.8L113.45 51.52L114.79 52.86L114.66 52.99L113.45 51.78L112.18 53.05L110.68 51.77L109.18 53.06Z" />
			<path id="Rectangle 23377" class="shp4" d="M111.43 45.48L111.64 45.48L111.64 48.04L111.43 48.04L111.43 45.48Z" />
			<path id="Ellipse 323" class="shp5" d="M85.48 83.66C83.6 83.66 82.08 82.14 82.08 80.26C82.08 78.37 83.6 76.85 85.48 76.85C87.36 76.85 88.88 78.37 88.88 80.26C88.88 82.14 87.36 83.66 85.48 83.66Z" />
			<path id="Path 25874" class="shp4" d="M83.23 80.3L82.26 79L82.43 78.88L83.27 79.99L84.74 78.73L86.22 80L87.5 78.72L88.85 80.07L88.7 80.22L87.5 79.02L86.23 80.29L84.74 79.01L83.23 80.3Z" />
			<path id="Path 25875" class="shp4" d="M83.02 81.99L82.06 80.7L82.2 80.59L83.05 81.72L84.52 80.45L86.01 81.72L87.29 80.44L88.63 81.79L88.5 81.92L87.29 80.71L86.02 81.98L84.52 80.7L83.02 81.99Z" />
			<path id="Rectangle 23378" class="shp4" d="M85.27 74.41L85.48 74.41L85.48 76.96L85.27 76.96L85.27 74.41Z" />
			<path id="Path 25876" class="shp3" d="M105.15 17.77L102.25 15.59L99.29 17.68L100.46 14.25L97.56 12.08L101.19 12.13L102.36 8.7L103.43 12.17L107.05 12.22L104.09 14.31L105.15 17.77Z" />
			<path id="Path 25877" class="shp2" d="M141.01 136.62C141.1 134.68 139.93 132.91 138.12 132.23C136.31 131.55 134.26 132.12 133.06 133.63C132.58 132.91 131.91 132.34 131.12 131.99C131.64 130 130.74 127.91 128.93 126.93C127.12 125.94 124.88 126.32 123.49 127.85C122.44 126.8 121.17 126 119.78 125.48C120.14 123.23 118.74 121.08 116.54 120.48C114.35 119.88 112.05 121.03 111.22 123.15C109.6 122.03 107.44 122.09 105.9 123.32C104.36 124.54 103.8 126.64 104.53 128.46C104 128.66 103.52 128.95 103.1 129.32C100.98 128.54 98.62 129.46 97.59 131.47C97.18 131.02 96.69 130.66 96.15 130.4C96.16 130.29 96.17 130.18 96.18 130.07C96.26 128.37 95.37 126.78 93.88 125.95C92.39 125.13 90.56 125.22 89.17 126.19C87.77 127.17 87.05 128.85 87.3 130.53C85.21 131.1 83.84 133.09 84.06 135.25C79.05 135.4 74.22 135.63 69.6 135.95C68.44 131.87 64.92 128.91 60.71 128.45C56.5 127.99 52.43 130.12 50.41 133.85C48.83 132.64 46.63 132.64 45.04 133.84C43.45 135.03 42.84 137.14 43.55 139C43.35 139.04 43.15 139.08 42.95 139.11C42.96 139.04 42.97 138.97 42.97 138.89C43.08 136.43 41.18 134.34 38.72 134.22C36.25 134.11 34.16 136.01 34.05 138.48C34.05 138.52 34.05 138.57 34.05 138.62C33.22 138.3 32.29 138.4 31.55 138.89C30.81 139.38 30.35 140.19 30.31 141.07C30.29 141.42 141 136.79 141.01 136.62Z" />
			<path id="Path 25878" class="shp2" d="M32.62 155.28C32.79 155.29 32.95 155.3 33.12 155.33L31.71 155.33C32.01 155.28 32.32 155.26 32.62 155.28L32.62 155.28Z" />
			<path id="Path 25879" class="shp2" d="M52.92 155.33L35.62 155.33C37.55 152.45 40.79 150.72 44.27 150.72C47.74 150.72 50.98 152.45 52.91 155.33L52.92 155.33Z" />
			<path id="Path 25880" class="shp2" d="M18.04 155.33L0.74 155.33C2.67 152.45 5.92 150.72 9.39 150.72C12.86 150.72 16.1 152.45 18.04 155.33L18.04 155.33Z" />
			<path id="Path 25881" class="shp2" d="M28.25 155.33L10.95 155.33C12.88 152.45 16.12 150.72 19.6 150.72C23.07 150.72 26.31 152.45 28.25 155.33L28.25 155.33Z" />
			<path id="Path 25882" class="shp2" d="M76.31 145.55L59.01 145.55C60.94 142.66 64.19 140.93 67.66 140.93C71.13 140.93 74.37 142.66 76.31 145.55L76.31 145.55Z" />
			<path id="Path 25883" class="shp2" d="M145.64 150.44L128.34 150.44C130.28 147.56 133.52 145.83 136.99 145.83C140.46 145.83 143.71 147.56 145.64 150.44Z" />
			<path id="Path 25884" class="shp2" d="M115.8 154.32C116.34 154.56 116.83 154.9 117.24 155.33L69.12 155.33C69.66 154.12 70.71 153.22 71.99 152.86C71.94 152.57 71.93 152.28 71.94 151.99C72.06 149.52 74.15 147.62 76.61 147.73C79.07 147.85 80.98 149.94 80.86 152.4C80.86 152.51 80.85 152.62 80.83 152.73C81.38 152.99 81.87 153.35 82.28 153.8C83.31 151.79 85.67 150.88 87.78 151.65C88.2 151.28 88.69 150.99 89.22 150.8C88.98 150.21 88.87 149.58 88.9 148.94C88.98 147.32 89.93 145.86 91.38 145.14C92.84 144.42 94.57 144.55 95.91 145.48C96.71 143.45 98.86 142.29 101 142.75C103.13 143.21 104.62 145.14 104.52 147.32C104.51 147.49 104.49 147.65 104.47 147.81C105.86 148.33 107.13 149.13 108.18 150.18C109.56 148.65 111.81 148.27 113.62 149.25C115.43 150.24 116.33 152.33 115.8 154.32L115.8 154.32Z" />
			<path id="Path 25885" class="shp2" d="M163.45 155.33L155.24 155.33C155.94 153.69 157.56 152.62 159.34 152.62C161.13 152.62 162.75 153.69 163.45 155.33Z" />
			<path id="Path 25886" class="shp2" d="M197.95 155.33L172.03 155.33C171.88 154.85 171.82 154.34 171.85 153.83C171.92 152.21 172.87 150.76 174.33 150.04C175.78 149.32 177.51 149.44 178.85 150.37C179.65 148.34 181.8 147.18 183.94 147.64C186.07 148.1 187.56 150.03 187.46 152.22C187.45 152.38 187.44 152.54 187.41 152.7C188.8 153.22 190.07 154.03 191.12 155.07C192.01 154.09 193.28 153.56 194.6 153.61C195.92 153.66 197.14 154.29 197.95 155.33L197.95 155.33Z" />
			<path id="Path 25887" class="shp2" d="M124.12 155.33L118.36 155.33C120.02 153.93 122.46 153.93 124.12 155.33L124.12 155.33Z" />
			<path id="Ellipse 324" class="shp8" d="M48.19 93.64C46.1 93.64 44.41 91.95 44.41 89.85C44.41 87.76 46.1 86.07 48.19 86.07C50.29 86.07 51.98 87.76 51.98 89.85C51.98 91.95 50.29 93.64 48.19 93.64Z" />
			<path id="Path 25888" class="shp6" d="M49.09 85.02C50.44 85.11 51.69 85.73 52.86 86.41C52.66 86.31 52.42 86.36 52.27 86.53C52.11 86.68 52.01 86.88 51.86 87.04C51.59 87.33 51.17 87.43 50.77 87.52L48.93 87.93L47.23 88.31C46.8 88.43 46.36 88.47 45.92 88.43C45.48 88.36 45.05 88.08 44.94 87.65C44.78 87.06 45.96 86.18 46.39 85.83C47.16 85.23 48.12 84.95 49.09 85.02Z" />
			<path id="Path 25889" class="shp6" d="M45.62 88.12C46.41 87.01 47.66 86.28 48.9 85.65C48.69 85.74 48.64 86.01 48.69 86.23C48.75 86.45 48.88 86.65 48.95 86.87C49.07 87.27 48.94 87.69 48.81 88.08L48.21 89.9L47.65 91.59C47.54 92.02 47.34 92.43 47.07 92.78C46.77 93.15 46.29 93.3 45.83 93.19C45.21 92.99 45.02 91.48 44.92 90.9C44.78 89.92 45.03 88.92 45.62 88.12Z" />
			<path id="Path 25890" class="shp8" d="M64.69 86.96C64.69 86.96 64.91 82.05 66.03 82.28C67.14 82.5 66.25 87.4 66.25 87.4L64.69 86.96Z" />
			<path id="Path 25891" class="shp4" d="M64.47 95.43L59.46 99.05L58 100.11L54.21 94.76L56.58 93.83L61.57 91.86L64.47 86.06L66.92 86.73C67.36 87.85 64.47 95.43 64.47 95.43Z" />
			<path id="Path 25892" class="shp8" d="M56.66 85.84C56.66 85.84 56 80.05 57.33 80.49C58.67 80.94 58.45 86.51 58.45 86.51L56.66 85.84Z" />
			<path id="Path 25893" class="shp4" d="M46.51 137.79L45.23 141.16L48.81 142.22L48.74 137.76L46.51 137.79Z" />
			<path id="Path 25894" class="shp6" d="M57.08 114.67L53.52 129.44L50.1 138.85L45.64 138.92L49.69 126.82L51.27 113.42L57.08 114.67Z" />
			<path id="Path 25895" class="shp6" d="M44.73 140.79C44.73 140.79 43.37 143.68 44.29 144.08C45.2 144.47 47.69 145 47.69 145L48.03 144.71C48.03 144.71 53.77 146 54.73 144.03C55.69 142.06 51.18 141.19 51.18 141.19L49.12 139.43L46.64 140.64L44.73 140.79Z" />
			<path id="Path 25896" class="shp4" d="M41.82 137.2L40.54 140.56L44.12 141.62L44.05 137.16L41.82 137.2Z" />
			<path id="Path 25897" class="shp6" d="M46.32 113.83L45.01 126.89L40.94 137.66L44.75 138.94L50.59 127.48L53.29 114.28L46.32 113.83Z" />
			<path id="Path 25898" class="shp6" d="M39.8 140.32C39.8 140.32 37.67 142.7 38.43 143.34C39.2 143.98 41.43 145.2 41.43 145.2L41.83 145.02C41.83 145.02 46.97 147.9 48.45 146.28C49.94 144.67 45.86 142.55 45.86 142.55L44.39 140.27L41.67 140.72L39.8 140.32Z" />
			<path id="Path 25899" class="shp7" d="M59.46 99.05L58 100.11L54.21 94.76L55.27 94.57C55.33 94.67 56.24 94.64 56.3 94.74C57.4 96.55 59 98.08 59.46 99.05Z" />
			<path id="Path 25900" class="shp4" d="M61.8 116.93C61.54 116.76 61.48 115.02 61.11 114.86C60.93 114.79 60.47 116.3 60.25 116.22C54.73 114.31 42.37 118.41 40.3 113.83C38.91 110.75 47.75 104.79 47.75 102.56C47.72 101.99 47.62 101.43 47.44 100.89C47.02 99.41 46.24 97.56 45.6 96.15C45.06 94.95 44.63 94.09 44.63 94.09C44.63 94.09 51.13 92.16 53.21 91.41C53.47 91.32 53.67 91.24 53.77 91.19C54.17 90.99 55.19 92.4 56.24 94.12C57.54 96.24 58.87 98.82 59.12 99.44C59.56 100.55 65.59 119.38 61.8 116.93Z" />
			<path id="Path 25901" class="shp7" d="M55.44 93.71C53.03 96.62 50.43 100.09 48.19 100.74C47.95 100.82 47.7 100.87 47.44 100.89C47.02 99.41 46.24 97.56 45.6 96.15C45.86 95.87 46.17 95.64 46.51 95.47L52.56 92.5L53.21 91.41C53.47 91.32 53.67 91.24 53.77 91.19C54.17 90.99 54.39 91.99 55.44 93.71Z" />
			<path id="Path 25902" class="shp4" d="M46.51 94.61C44.86 95.42 44.26 97.54 45.33 99.03C45.89 99.81 46.77 100.3 48.19 99.88C51.98 98.77 59.12 90.75 59.12 88.29L59.12 86.07L56.44 85.17L52.56 91.64L46.51 94.61Z" />
			<path id="Ellipse 325" class="shp6" d="M56.53 95.65C56.37 95.76 56.07 95.6 55.85 95.29C55.63 94.98 55.57 94.64 55.73 94.53C55.88 94.42 56.19 94.58 56.41 94.89C56.63 95.2 56.68 95.54 56.53 95.65Z" />
			<path id="Ellipse 326" class="shp6" d="M57.56 97.54C57.4 97.65 57.1 97.49 56.88 97.18C56.66 96.87 56.6 96.53 56.76 96.42C56.91 96.31 57.22 96.47 57.44 96.78C57.66 97.09 57.71 97.43 57.56 97.54Z" />
			<path id="Ellipse 327" class="shp6" d="M58.42 99.6C58.26 99.71 57.96 99.55 57.74 99.24C57.52 98.93 57.46 98.59 57.62 98.48C57.77 98.37 58.08 98.53 58.3 98.84C58.52 99.15 58.57 99.49 58.42 99.6Z" />
			<path id="Ellipse 328" class="shp6" d="M58.76 101.76C58.58 101.82 58.33 101.58 58.21 101.22C58.09 100.86 58.13 100.52 58.31 100.45C58.49 100.39 58.74 100.63 58.86 100.99C58.98 101.35 58.94 101.69 58.76 101.76Z" />
			<path id="Ellipse 329" class="shp6" d="M59.44 103.82C59.26 103.88 59.02 103.64 58.9 103.28C58.77 102.92 58.82 102.58 59 102.52C59.18 102.46 59.42 102.7 59.55 103.06C59.67 103.42 59.62 103.76 59.44 103.82Z" />
			<path id="Ellipse 330" class="shp6" d="M60.13 105.71C59.95 105.77 59.71 105.53 59.58 105.17C59.46 104.81 59.51 104.47 59.69 104.41C59.87 104.35 60.11 104.59 60.24 104.95C60.36 105.31 60.31 105.65 60.13 105.71Z" />
			<path id="Ellipse 331" class="shp6" d="M60.48 107.78C60.3 107.84 60.05 107.6 59.93 107.24C59.81 106.88 59.85 106.53 60.03 106.47C60.21 106.41 60.46 106.65 60.58 107.01C60.7 107.37 60.66 107.71 60.48 107.78Z" />
			<path id="Ellipse 332" class="shp6" d="M60.82 109.84C60.64 109.9 60.4 109.66 60.27 109.3C60.15 108.94 60.2 108.6 60.38 108.54C60.56 108.48 60.8 108.72 60.92 109.08C61.05 109.44 61 109.78 60.82 109.84Z" />
			<path id="Ellipse 333" class="shp6" d="M61.16 112.07C60.98 112.14 60.74 111.89 60.62 111.53C60.49 111.17 60.54 110.83 60.72 110.77C60.9 110.71 61.14 110.95 61.27 111.31C61.39 111.67 61.34 112.01 61.16 112.07Z" />
			<path id="Ellipse 334" class="shp6" d="M61.34 114.31C61.16 114.37 60.91 114.13 60.79 113.77C60.67 113.41 60.71 113.07 60.89 113.01C61.07 112.95 61.32 113.19 61.44 113.55C61.56 113.91 61.52 114.25 61.34 114.31Z" />
			<path id="Path 25903" class="shp3" d="M46.2 92.14C46.2 92.14 51.3 86.21 50.81 85.06C50.33 83.9 46.34 81.52 41.74 83.45C41.74 83.45 39.71 81.87 39.01 84.06C38.31 86.25 40.86 86.53 40.86 86.53C40.86 86.53 40.07 91.74 44.82 92.72L46.2 92.14Z" />
			<path id="Ellipse 335" class="shp5" d="M128.65 142.57C126.77 142.57 125.25 141.05 125.25 139.17C125.25 137.28 126.77 135.76 128.65 135.76C130.54 135.76 132.06 137.28 132.06 139.17C132.06 141.05 130.54 142.57 128.65 142.57Z" />
			<path id="Path 25904" class="shp4" d="M126.4 139.21L125.43 137.91L125.6 137.79L126.44 138.91L127.91 137.64L129.39 138.92L130.67 137.63L132.03 138.98L131.88 139.14L130.67 137.93L129.4 139.2L127.91 137.92L126.4 139.21Z" />
			<path id="Path 25905" class="shp4" d="M126.19 140.9L125.23 139.61L125.38 139.5L126.22 140.63L127.7 139.36L129.18 140.64L130.46 139.35L131.8 140.7L131.67 140.83L130.46 139.62L129.19 140.89L127.7 139.61L126.19 140.9Z" />
			<path id="Rectangle 23379" class="shp4" d="M128.44 133.32L128.65 133.32L128.65 135.87L128.44 135.87L128.44 133.32Z" />
			<path id="Ellipse 336" class="shp3" d="M117.27 142.45C115.39 142.45 113.87 140.93 113.87 139.05C113.87 137.16 115.39 135.64 117.27 135.64C119.15 135.64 120.67 137.16 120.67 139.05C120.67 140.93 119.15 142.45 117.27 142.45Z" />
			<path id="Path 25906" class="shp4" d="M115.26 140.06L113.82 139.31L113.92 139.12L115.16 139.77L115.94 137.99L117.83 138.5L118.43 136.79L120.24 137.43L120.16 137.63L118.56 137.06L117.97 138.76L116.06 138.25L115.26 140.06Z" />
			<path id="Path 25907" class="shp4" d="M115.71 141.49L114.37 140.92L114.45 140.75L115.63 141.25L116.5 139.64L118.3 139.98L118.99 138.44L120.68 138.89L120.64 139.07L119.09 138.66L118.41 140.19L116.6 139.85L115.71 141.49Z" />
			<path id="Rectangle 23380" class="shp4" d="M114.56 133.86L114.75 133.77L115.85 136.07L115.66 136.16L114.56 133.86Z" />
			<path id="Ellipse 337" class="shp3" d="M86.71 140.53C84.82 140.53 83.3 139.01 83.3 137.13C83.3 135.25 84.82 133.73 86.71 133.73C88.59 133.73 90.11 135.25 90.11 137.13C90.11 139.01 88.59 140.53 86.71 140.53Z" />
			<path id="Path 25908" class="shp4" d="M84.57 136.43L84.08 134.88L84.28 134.81L84.7 136.15L86.51 135.45L87.49 137.14L89.12 136.36L89.94 138.08L89.75 138.17L89.02 136.64L87.4 137.42L86.42 135.71L84.57 136.43Z" />
			<path id="Path 25909" class="shp4" d="M89 139.7L88.26 138.16L86.64 138.93L85.66 137.23L83.81 137.94L83.33 136.41L83.5 136.35L83.93 137.7L85.74 137L86.71 138.69L88.35 137.91L89.17 139.62L89 139.7Z" />
			<path id="Rectangle 23381" class="shp4" d="M87.6 133.95L88.45 131.54L88.65 131.61L87.8 134.02L87.6 133.95Z" />
			<path id="Ellipse 338" class="shp4" d="M158.7 130.63C158.52 130.66 158.31 130.21 158.22 129.63C158.13 129.05 158.19 128.56 158.36 128.53C158.54 128.5 158.75 128.95 158.84 129.53C158.94 130.11 158.87 130.6 158.7 130.63Z" />
			<path id="Ellipse 339" class="shp4" d="M158.27 127.65C158.1 127.68 157.89 127.23 157.79 126.65C157.7 126.07 157.77 125.58 157.94 125.55C158.11 125.52 158.33 125.97 158.42 126.55C158.51 127.13 158.44 127.63 158.27 127.65Z" />
			<path id="Ellipse 340" class="shp4" d="M159.12 133.39C158.95 133.42 158.74 132.98 158.64 132.39C158.55 131.81 158.62 131.32 158.79 131.29C158.96 131.27 159.18 131.71 159.27 132.3C159.36 132.88 159.3 133.37 159.12 133.39Z" />
			<path id="Ellipse 341" class="shp4" d="M159.27 135.96C159.09 135.97 158.91 135.51 158.85 134.93C158.8 134.34 158.9 133.85 159.07 133.84C159.25 133.82 159.43 134.28 159.48 134.87C159.54 135.45 159.44 135.94 159.27 135.96Z" />
			<path id="Ellipse 342" class="shp4" d="M164.07 118.32C163.66 118.73 163.22 118.97 163.1 118.85C162.97 118.72 163.21 118.29 163.62 117.87C164.04 117.46 164.48 117.22 164.6 117.34C164.72 117.47 164.49 117.9 164.07 118.32Z" />
			<path id="Path 25910" class="shp6" d="M156.05 112.68C155.6 112.63 155.21 112.98 154.9 113.31C154.63 113.59 154.35 113.86 154.04 114.1C153.1 114.77 151.89 114.94 150.8 114.56C150.83 114.57 151.83 113.24 151.94 113.12C152.36 112.66 152.8 112.22 153.28 111.82C153.64 111.52 154.13 111 154.64 111.23C155.18 111.46 155.67 112.25 156.05 112.68Z" />
			<path id="Path 25911" class="shp4" d="M149.81 115.45C149.81 115.45 155.77 112.48 155.77 111.41C155.77 110.35 153.43 107.16 149.18 107.16C149.18 107.16 148.11 105.24 146.84 106.73C145.56 108.22 147.48 109.29 147.48 109.29C147.48 109.29 145.14 113.11 148.54 115.45L149.81 115.45Z" />
			<path id="Path 25912" class="shp4" d="M157.2 112.46C156.75 112.41 156.36 112.76 156.05 113.08C155.78 113.37 155.5 113.64 155.19 113.88C154.25 114.55 153.04 114.72 151.95 114.34C151.98 114.35 152.98 113.02 153.09 112.9C153.51 112.44 153.96 112 154.43 111.6C154.79 111.3 155.28 110.78 155.79 111.01C156.33 111.24 156.82 112.03 157.2 112.46Z" />
			<path id="Path 25913" class="shp5" d="M170.23 111.63C169.55 110.5 168.34 111.16 167.35 112.04C167.3 111.5 167.13 111.09 166.94 111.09C166.7 111.09 166.51 111.66 166.51 112.37C166.51 112.53 166.52 112.68 166.54 112.84C166.07 113.34 165.77 113.75 165.77 113.75L164.49 114.6L166.83 117.15L167.89 115.88C167.89 115.88 171.51 113.75 170.23 111.63Z" />
			<path id="Ellipse 343" class="shp4" d="M146.52 107.05C146.05 107.05 145.67 106.67 145.67 106.2C145.67 105.73 146.05 105.35 146.52 105.35C146.99 105.35 147.37 105.73 147.37 106.2C147.37 106.67 146.99 107.05 146.52 107.05Z" />
			<path id="Path 25914" class="shp3" d="M151.47 129.62L151.47 131.01C151.47 132.09 152.34 132.96 153.41 132.96C154.49 132.96 155.36 132.09 155.36 131.01L155.36 129.62L151.47 129.62Z" />
			<path id="Path 25915" class="shp7" d="M151.47 129.62L151.47 131.01C151.47 132.09 152.34 132.96 153.41 132.96C154.49 132.96 155.36 132.09 155.36 131.01L155.36 129.62L151.47 129.62Z" />
		</g>
	</g>
</svg>