<svg version="1.2" baseProfile="tiny-ps" xmlns="http://www.w3.org/2000/svg" viewBox="0 0 31 32" width="31" height="32">
	<title>Web 1920 – 4</title>
	<style>
		tspan { white-space:pre }
		.shp0 { opacity: 0.42;fill: #000000 } 
	</style>
	<g id="Web 1920 – 4">
		<g id="Scroll Group 5">
			<g id="Group 26130">
				<path id="Icon awesome-slideshare" fill-rule="evenodd" class="shp0" d="M28.83 15.55C29.74 14.92 30.34 15.79 29.79 16.61C28.7 17.96 26.62 19.61 23.45 20.91C26.81 32.36 15.24 34.18 15.43 28.31C15.43 28.27 15.41 25.1 15.41 22.73C15.15 22.68 14.9 22.61 14.59 22.54C14.59 24.93 14.57 28.27 14.57 28.31C14.76 34.18 3.19 32.35 6.55 20.9C3.38 19.61 1.3 17.95 0.21 16.6C-0.34 15.79 0.26 14.91 1.16 15.55C1.28 15.63 1.42 15.72 1.54 15.8L1.54 3.96C1.54 2.33 2.77 1 4.29 1L25.73 1C27.24 1 28.47 2.33 28.47 3.96L28.47 15.8L28.83 15.55ZM27.02 16.69L27.02 5.31C27.02 3.35 26.38 2.58 24.57 2.58L5.61 2.58C3.71 2.58 3.18 3.23 3.18 5.31L3.18 16.8C7.22 18.91 10.69 18.54 12.58 18.47C13.38 18.45 13.89 18.61 14.2 18.93C14.3 19.03 14.79 19.49 15.41 19.95C15.47 19.01 16.01 18.41 17.42 18.47C19.35 18.55 22.9 18.93 27.01 16.69L27.02 16.69ZM14.6 13.62C14.6 15.51 12.95 17.06 10.92 17.06C8.89 17.06 7.24 15.51 7.24 13.62C7.24 11.71 8.89 10.17 10.92 10.17C12.95 10.17 14.6 11.71 14.6 13.62ZM23.17 13.62C23.17 15.51 21.53 17.06 19.48 17.06C17.45 17.06 15.8 15.51 15.8 13.62C15.8 11.71 17.45 10.17 19.48 10.17C21.53 10.17 23.17 11.71 23.17 13.62Z" />
			</g>
		</g>
	</g>
</svg>