<svg version="1.2" baseProfile="tiny-ps" xmlns="http://www.w3.org/2000/svg" viewBox="0 0 31 25" width="31" height="25">
	<title>Web 1920 – 4</title>
	<style>
		tspan { white-space:pre }
		.shp0 { opacity: 0.42;fill: #000000 } 
	</style>
	<g id="Web 1920 – 4">
		<g id="Scroll Group 5">
			<g id="Group 26129">
				<path id="Icon awesome-eye-slash" fill-rule="evenodd" class="shp0" d="M29.71 21.47C30.04 21.73 30.1 22.2 29.84 22.53L28.92 23.71C28.67 24.04 28.2 24.1 27.87 23.84L0.29 2.53C-0.04 2.27 -0.1 1.8 0.16 1.47L1.08 0.29C1.33 -0.04 1.8 -0.1 2.13 0.16L8.09 4.77C10.21 3.61 12.59 3 15 3C20.76 3 25.79 6.36 28.34 11.32C28.55 11.75 28.55 12.25 28.34 12.68C27.4 14.52 26.1 16.14 24.53 17.47L29.71 21.47ZM16.22 18.63L18.65 20.51C17.48 20.81 16.26 21 15 21C9.24 21 4.21 17.64 1.66 12.68C1.45 12.25 1.45 11.75 1.66 11.32C2.14 10.38 2.74 9.52 3.38 8.71L8.3 12.51C8.57 16 11.44 18.75 15 18.75C15.41 18.75 15.82 18.71 16.22 18.63ZM21.1 14.82C21.5 13.96 21.75 13.01 21.75 12C21.75 10.21 21.04 8.49 19.77 7.23C18.51 5.96 16.79 5.25 15 5.25C13.44 5.25 11.93 5.8 10.73 6.8L14.18 9.47C14.22 9.32 14.24 9.16 14.25 9C14.25 8.52 14.1 8.06 13.81 7.68C15.17 7.28 16.62 7.55 17.75 8.41C18.87 9.26 19.52 10.59 19.5 12C19.49 12.47 19.41 12.94 19.26 13.39L21.1 14.82L21.1 14.82Z" />
			</g>
		</g>
	</g>
</svg>