<svg version="1.2" baseProfile="tiny-ps" xmlns="http://www.w3.org/2000/svg" viewBox="0 0 27 24" width="27" height="24">
	<title>Web 1920 – 6</title>
	<style>
		tspan { white-space:pre }
		.shp0 { opacity: 0.502;fill: #000000 } 
	</style>
	<g id="Web 1920 – 6">
		<path id="Icon ionic-md-book" fill-rule="evenodd" class="shp0" d="M27 2.66L27 18.52C27 19.87 25.96 20.64 24.55 20.96L13.5 23.04L2.45 20.97C1.04 20.65 0 19.87 0 18.53L0 2.66C0 1.32 1.04 0 2.45 0.22L13.5 2.3L24.55 0.22C25.96 0 27 1.32 27 2.66ZM24.55 2.65L14.73 4.73L14.73 20.6L24.55 18.52L24.55 2.65ZM12.27 4.74L2.45 2.66L2.45 18.52L12.27 20.6L12.27 4.74Z" />
	</g>
</svg>