<svg version="1.2" baseProfile="tiny-ps" xmlns="http://www.w3.org/2000/svg" viewBox="0 0 382 219" width="382" height="219">
	<title>Web 1920 – 6</title>
	<defs>
		<linearGradient id="grd1" gradientUnits="userSpaceOnUse"  x1="269.297" y1="169.02" x2="269.297" y2="35.026">
			<stop offset="0" stop-color="#808080" stop-opacity="0.25" />
			<stop offset="0.54" stop-color="#808080" stop-opacity="0.12" />
			<stop offset="1" stop-color="#808080" stop-opacity="0.1" />
		</linearGradient>
		<linearGradient id="grd2" gradientUnits="userSpaceOnUse"  x1="50.174" y1="137.937" x2="124.189" y2="137.937">
			<stop offset="0" stop-color="#808080" stop-opacity="0.25" />
			<stop offset="0.54" stop-color="#808080" stop-opacity="0.12" />
			<stop offset="1" stop-color="#808080" stop-opacity="0.1" />
		</linearGradient>
	</defs>
	<style>
		tspan { white-space:pre }
		.shp0 { opacity: 0.102;fill: #6c63ff } 
		.shp1 { opacity: 0.102;fill: #000000 } 
		.shp2 { fill: url(#grd1) } 
		.shp3 { fill: #be6f72 } 
		.shp4 { fill: #3f3d56 } 
		.shp5 { fill: #65617d } 
		.shp6 { fill: #e3e8f4 } 
		.shp7 { fill: #000000 } 
		.shp8 { fill: #ffd700 } 
		.shp9 { opacity: 0.102;fill: #ffd700 } 
		.shp10 { opacity: 0.102;fill: #ffffff } 
		.shp11 { fill: url(#grd2) } 
		.shp12 { fill: #f86d70 } 
		.shp13 { fill: #fbbebe } 
		.shp14 { fill: #444053 } 
		.shp15 { fill: #e8e8f0 } 
		.shp16 { fill: #6c63ff } 
	</style>
	<g id="Web 1920 – 6">
		<g id="Group 26647">
			<path id="Path 25916" class="shp0" d="M229.07 157.49C236.43 157.07 245.56 152.08 252.66 149.87C261.06 147.26 269.5 144.75 277.97 142.34C307.46 133.95 337.27 126.8 367.39 120.89C370.2 120.34 373.02 119.8 375.84 119.28C371.45 109.78 364.64 101.61 356.1 95.57C356.32 93.49 356.43 91.41 356.43 89.32C356.43 56.3 330.05 29.53 297.48 29.53C287.46 29.52 277.6 32.1 268.87 37.04C245.82 21.88 215.74 12.7 182.83 12.7C136.06 12.7 95 31.23 71.73 59.13L181.07 77.6L248.13 88.93C171.68 91.21 95 93.48 18.77 88.12C-1.98 108.2 -5.63 140.16 10.07 164.39L10.07 164.39C10.07 165.59 10.12 166.77 10.21 167.95C12.15 168.51 14.03 169.05 15.71 169.4C42.71 175.1 69.89 179.88 97.24 183.72C77.08 196.15 52.54 197.91 29.29 203.17C40.55 212.46 55.84 218.16 72.68 218.16L323.52 218.16C350.69 218.16 372.7 199.25 372.7 175.92L372.7 175.92C376.78 169.2 379.49 161.74 380.7 153.97C330.44 158.83 279.55 154.61 229.07 157.49Z" />
			<path id="Path 25917" class="shp1" d="M381.04 144.04C381.09 124.53 371.65 106.21 355.73 94.94C355.94 92.86 356.05 90.77 356.06 88.69C356.06 55.67 329.66 28.91 297.11 28.91C287.08 28.9 277.22 31.48 268.49 36.41C245.44 21.25 215.36 12.07 182.44 12.07C128.9 12.07 82.82 36.36 62.38 71.21C61.25 71.14 60.11 71.1 58.95 71.1C26.4 71.1 0 97.87 0 130.89C-0.02 142.56 3.35 153.97 9.7 163.76L9.7 163.76C9.7 193.47 37.74 217.55 72.32 217.55L323.16 217.55C350.32 217.55 372.34 198.64 372.34 175.31L372.34 175.31C378.05 165.88 381.06 155.06 381.04 144.04L381.04 144.04Z" />
			<path id="Path 25918" fill-rule="evenodd" class="shp2" d="M312.18 110.94C312.16 111.46 312.09 112.03 311.69 112.36C311.35 112.58 310.93 112.68 310.52 112.64L310.44 112.64C309.25 112.63 308.05 112.57 306.92 112.94C306.16 113.19 305.47 113.63 304.7 113.8C304.11 115.75 304.67 117.95 304.51 120.03C304.36 121.34 304.06 122.63 303.62 123.88C303.24 125.12 302.85 126.37 302.36 127.58C301.94 128.6 301.46 129.57 301.07 130.6C300.46 132.22 300.09 134.06 298.84 135.26C298.27 137.99 297.55 140.97 295.31 142.64C293.37 144.08 290.63 144.12 288.37 143.26C286.11 142.4 284.25 140.72 282.62 138.93C280.99 137.13 279.54 135.16 277.79 133.49C276.79 132.55 275.72 131.68 274.61 130.88C273.48 130.05 272.32 129.27 271.13 128.55C270.4 128.05 269.58 127.69 268.71 127.5C268.01 127.36 267.27 127.5 266.67 127.9C266.53 127.99 266.4 128.1 266.3 128.23C266 128.65 265.78 129.11 265.63 129.6C264.24 133.25 260.49 135.13 257.49 137.62L254.76 139.89C254.38 140.2 253.97 140.66 254.15 141.11C254.28 141.34 254.48 141.51 254.73 141.6C256.32 142.39 258.19 142.71 259.5 143.91C259.98 144.35 260.44 144.93 261.09 144.97C261.43 144.94 261.77 144.87 262.09 144.74C263.1 144.46 264.19 144.68 265.02 145.33C265.25 145.56 265.52 145.74 265.82 145.88C266.07 145.94 266.33 145.96 266.58 145.92C267.29 145.87 268.01 145.79 268.68 146.13C269.34 146.46 269.84 147.19 270.58 147.25C270.94 147.27 271.39 147.15 271.72 147.19C271.92 147.19 272.09 147.29 272.2 147.45C272.28 147.64 272.33 147.83 272.36 148.03C272.53 148.4 272.78 148.73 273.09 148.99C273.24 149.01 273.38 149.04 273.52 149.07C274.09 149.19 274.64 149.35 275.19 149.54L275.22 149.54C275.88 149.78 276.59 150.16 276.8 150.83C276.89 151.2 276.88 151.6 276.76 151.97C276.25 153.9 274.74 155.4 273.97 157.24C272.8 159.99 273.34 163.36 271.67 165.85C271.14 166.61 270.49 167.27 269.75 167.83C269.34 168.18 268.89 168.48 268.42 168.73C267.92 169 267.34 169.07 266.8 168.93C266.1 168.69 265.67 167.93 265.6 167.19C265.58 166.95 265.58 166.71 265.6 166.47C265.67 165.97 265.78 165.48 265.94 165C266.33 163.65 266.73 162.29 267.13 160.94C267.38 160.21 267.54 159.44 267.61 158.67C267.62 158.48 267.6 158.29 267.57 158.1C267.43 157.99 267.32 157.84 267.24 157.68C267.16 157.42 267.05 157.17 266.91 156.95C266.37 156.35 265.17 156.98 264.67 156.35C264.37 155.96 264.62 155.37 264.29 154.92C263.97 154.47 263.3 154.59 262.75 154.56C262.12 154.53 261.53 154.23 260.91 154.07C259.91 153.81 258.87 153.91 257.84 153.84C256.99 153.76 256.15 153.63 255.32 153.44L251.08 152.57C248.38 152.02 245.68 151.47 243.11 150.47C242.11 150.1 241.11 149.64 240.44 148.84C239.88 148.14 239.53 147.29 239.4 146.4C238.8 142.84 242 139.8 242.4 136.21C242.56 134.9 243.05 133.66 243.56 132.45C244.48 130.27 245.38 128.1 246.27 125.93C246.42 125.52 246.61 125.14 246.85 124.78C247.23 124.31 247.66 123.89 248.14 123.52C249.4 122.37 250.3 120.88 250.75 119.23C250.78 119.05 250.85 118.88 250.97 118.73C251.09 118.63 251.22 118.54 251.35 118.48C251.85 118.16 252.05 117.54 251.86 116.99C252.28 116.96 252.62 116.61 252.65 116.18C252.63 116 252.64 115.82 252.68 115.64C252.75 115.47 252.96 115.38 253.08 115.23C253.27 114.98 253.2 114.63 253.17 114.31C253.15 114.11 253.15 113.91 253.17 113.72C253.2 113.46 253.26 113.21 253.35 112.97C252.87 113.21 252.41 113.48 251.97 113.8C251.71 112.2 251.44 110.6 251.17 109C251.17 108.96 251.17 108.93 251.17 108.89C250.84 108.8 250.51 108.73 250.17 108.69C249.49 108.64 248.8 108.75 248.17 109.02C247.91 109.12 247.66 109.23 247.41 109.35C247.08 109.52 246.74 109.71 246.41 109.89C245.92 110.18 245.4 110.44 244.87 110.66C244.72 110.72 244.56 110.77 244.41 110.81L244.34 110.83C244.21 110.87 244.08 110.9 243.95 110.93L243.84 110.96C243.7 110.99 243.56 111.01 243.42 111.03L243.37 111.03C243.21 111.05 243.06 111.07 242.9 111.07C242.8 111.07 242.41 111.07 242.29 111.07C242.18 111.07 242.07 111.05 241.96 111.05L241.83 111.05C241.67 111.04 241.52 111.02 241.38 110.99L241.25 110.97L240.92 110.9L240.84 110.88L240.76 110.86C240.64 110.83 240.51 110.79 240.39 110.75L240.29 110.72C240.13 110.66 239.98 110.6 239.83 110.54L239.74 110.5C239.61 110.44 239.49 110.38 239.36 110.31L239.27 110.26C239.12 110.18 238.98 110.1 238.83 110C238.7 109.91 238.56 109.81 238.44 109.69C238.25 109.52 238.11 109.3 238.05 109.04C238.03 108.97 238.02 108.9 238.03 108.82C238.07 108.6 238.13 108.38 238.21 108.16C238.21 108.14 238.21 108.14 238.21 108.14C238.29 107.71 238.12 107.25 238.21 106.81C238.32 106.24 238.85 105.85 239.12 105.33C239.14 105.31 239.15 105.29 239.16 105.26C239.41 104.7 239.32 104.04 239.53 103.46C239.79 102.75 240.46 102.3 241.1 101.88C241.23 101.8 241.38 101.71 241.52 101.63L242.02 101.35C242 101.27 242 101.19 242 101.11C242 100.47 242.36 99.9 242.67 99.33C243.76 97.29 244.1 94.99 244.67 92.74C245.04 91.2 245.43 89.65 245.33 88.08C245.29 87.26 245.1 86.43 245.04 85.6C244.98 84.7 245.06 83.79 245.01 82.9C244.95 82.01 244.48 81.22 244.26 80.35C244.24 80.26 244.23 80.18 244.21 80.1C244.09 80.12 243.96 80.12 243.84 80.1C243.46 80 243.1 79.84 242.78 79.6L240 77.84C239.48 77.53 238.98 77.18 238.5 76.81C237.77 76.19 237.11 75.5 236.53 74.74C234.91 72.73 233.48 70.56 231.68 68.71C231.2 68.2 230.67 67.73 230.2 67.2C229.56 66.45 228.96 65.65 228.43 64.81C227.91 64.04 227.37 63.18 227.46 62.26C227.5 61.74 227.76 61.26 227.83 60.74C227.91 60.22 227.71 59.59 227.21 59.45C227.15 59.44 227.09 59.43 227.03 59.42C226.93 59.41 226.83 59.39 226.74 59.36C226.28 59.17 226.35 58.46 226.68 58.07C227.01 57.68 227.51 57.47 227.81 57.07C227.95 56.83 228.11 56.59 228.28 56.37C228.35 56.3 228.43 56.25 228.51 56.2C228.73 55.39 229.08 54.5 229.18 54.2C229.58 53 230.06 51.85 230.51 50.67C230.91 49.63 231.64 48.22 231.64 47.09C231.95 45.61 232.04 44.08 232.44 42.62C232.73 41.66 233.07 40.73 233.49 39.83L234.92 36.35C235.05 35.95 235.29 35.58 235.61 35.3C235.95 35.09 236.35 34.98 236.75 34.99C238.19 34.94 239.7 35.38 240.68 36.44C241.66 37.51 241.97 39.23 241.19 40.44C240.25 41.9 238.22 42.19 237 43.42C236.23 44.2 235.85 45.3 235.62 46.38C235.01 49.18 235.22 52.09 235.03 54.96C235.01 55.21 234.98 55.47 234.94 55.73C235.27 55.8 235.65 55.92 235.75 56.26C235.79 56.41 235.79 56.58 235.75 56.74C235.61 57.4 235.52 58.06 235.5 58.74C235.5 58.88 235.51 59.02 235.52 59.16C235.68 60.58 236.6 61.77 237.49 62.88C238.55 64.19 239.62 65.5 240.7 66.8C241.29 67.56 241.94 68.25 242.65 68.89C243.28 69.41 244.09 69.85 244.61 70.49C244.83 70.5 245.05 70.43 245.24 70.3C245.47 70.11 245.72 69.96 246 69.84C246.49 69.71 246.98 69.99 247.49 70.04C248.34 70.14 249.11 69.57 249.85 69.15C250.98 68.5 252.23 68.12 253.52 68.03C254.18 67.98 254.93 68.04 255.39 68.51C255.21 68.74 255.03 68.97 254.85 69.21C255.02 69.08 255.18 68.94 255.33 68.78C255.64 68.37 255.62 67.8 255.57 67.28C255.4 65.98 255.34 64.66 255.4 63.35C255.41 63.26 255.43 63.17 255.43 63.07C254.58 61.2 254.65 59.03 255.62 57.21L255.48 57.17L255.08 57.08C254.95 57.05 254.82 57.01 254.7 56.96C254.39 56.83 254.11 56.63 253.89 56.38C253.66 56.12 253.49 55.81 253.4 55.47C253.37 55.38 253.35 55.29 253.34 55.2C253.34 55.19 253.34 55.16 253.34 55.16C253.32 55.08 253.32 55 253.32 54.91C253.32 54.73 253.34 54.54 253.38 54.36C253.44 54.03 253.58 53.72 253.8 53.47C254.14 53.06 254.62 52.84 254.92 52.4C255.3 51.82 255.27 51.03 255.45 50.35C255.67 49.47 256.3 48.74 257.15 48.4C257.97 48.13 258.88 48.32 259.52 48.9C259.85 49.2 260.11 49.59 260.44 49.9C260.77 50.22 261.18 50.45 261.62 50.57C261.83 50.21 262.11 49.9 262.44 49.65L262.49 49.61L262.49 49.61C263.08 49.17 263.82 48.96 264.56 49.04C265.81 49.27 266.83 50.18 267.18 51.4C267.34 51.9 267.4 52.45 267.67 52.87C268.09 53.51 268.85 53.71 269.42 54.18C270.11 54.82 270.52 55.71 270.54 56.66C270.54 56.78 270.54 56.9 270.54 57.02C270.53 57.73 270.42 58.44 270.21 59.13C270.18 59.24 270.13 59.37 270.1 59.46C270.07 59.56 270.04 59.66 270.01 59.75C269.91 60.04 269.83 60.34 269.76 60.64C269.7 61.02 269.69 61.42 269.63 61.8C269.57 62.19 269.46 62.57 269.3 62.92C269.19 63.16 269.06 63.38 268.9 63.59C268.83 63.69 268.75 63.78 268.66 63.88C268.5 64.06 268.31 64.22 268.11 64.36C267.99 64.45 267.85 64.5 267.7 64.51C267.47 64.48 267.32 64.25 267.22 64L267.18 63.9C267.18 63.88 267.18 63.88 267.18 63.88C266.36 65.23 265.08 66.24 263.57 66.73C263.56 66.83 263.54 66.95 263.54 67.06C263.47 67.52 263.5 67.98 263.61 68.43C263.69 68.31 263.77 68.2 263.86 68.1C264.47 67.38 265.58 67 266.37 67.51C267.26 68.09 267.3 69.43 268.06 70.18C268.71 70.82 269.72 70.87 270.63 70.95C272.26 71.1 273.86 71.48 275.39 72.07C275.68 72.17 275.95 72.33 276.18 72.55C276.59 73.01 276.49 73.75 276.71 74.34C277 75.1 277.78 75.59 278.08 76.34C278.21 76.69 278.25 77.07 278.2 77.44C278.25 77.6 278.29 77.77 278.33 77.93C278.49 78.52 278.78 79.06 279.18 79.52C279.51 79.82 279.81 80.15 280.06 80.52C280.36 81.11 280.24 81.81 280.39 82.44C280.56 83.13 281.04 83.73 281.11 84.44C281.12 84.64 281.14 84.85 281.17 85.05C281.38 85.86 282.57 86.06 282.84 86.85C282.89 87.02 282.9 87.19 282.89 87.35C283.02 87.29 283.16 87.24 283.31 87.2C283.29 87.35 283.27 87.49 283.27 87.64C283.47 87.45 283.68 87.29 283.88 87.12C285.64 85.65 287.11 83.84 288.19 81.81C288.68 80.96 289.02 80.03 289.18 79.05C289.27 78.31 289.22 77.56 289.27 76.82C289.38 75.53 289.82 74.29 289.94 73.01C290.02 72.12 289.95 71.22 290.15 70.34C290.34 69.47 290.88 68.6 291.73 68.35C292.34 68.2 292.98 68.3 293.51 68.63C294.03 68.96 294.51 69.35 294.93 69.81C295.35 70.22 295.78 70.67 295.88 71.25C295.91 71.6 295.88 71.97 295.77 72.31C295.18 74.83 294.31 77.27 293.18 79.6C292.75 80.5 292.27 81.38 291.87 82.29C291.49 83.13 291.18 84 290.87 84.87C290.23 86.7 289.58 88.53 288.94 90.36C288.78 90.88 288.56 91.39 288.28 91.85C288.02 92.23 287.72 92.59 287.39 92.91C287.16 93.13 287 93.32 286.83 93.49C287.02 93.57 287.21 93.64 287.4 93.7C287.24 94.49 286.42 94.93 285.85 95.49C285.03 96.28 284.62 97.47 283.66 98.07C282.59 98.74 281.22 98.48 279.99 98.2C279.88 98.18 279.78 98.13 279.71 98.05C279.68 98.01 279.66 97.96 279.65 97.92L279.63 97.84C279.24 97.31 278.84 96.78 278.44 96.25C278.3 96.04 278.12 95.86 277.92 95.72C277.75 95.61 277.56 95.56 277.39 95.47C276.89 95.18 276.7 94.59 276.51 94.06C275.98 92.58 275.19 91.21 274.18 90.01C273.8 89.61 273.47 89.17 273.18 88.7C272.88 88.83 272.55 88.83 272.25 88.7C272.17 89.32 272.08 89.94 272 90.56C271.92 90.95 271.92 91.35 272 91.74C272.08 92.14 272.38 92.46 272.77 92.56C272.82 92.85 273.12 92.98 273.37 93.14C274.13 93.67 274.31 94.71 273.79 95.47C273.58 95.75 273.27 95.98 273.17 96.32C273.02 96.81 273.38 97.32 273.81 97.59C274.24 97.86 274.76 97.98 275.2 98.23C276.11 98.76 276.6 99.81 276.91 100.81C277.15 101.57 277.34 102.39 277.91 102.95C278.13 103.16 278.39 103.32 278.6 103.54C278.97 103.97 279.18 104.51 279.2 105.07C279.29 105.77 279.14 106.47 278.77 107.07C278.47 107.47 278.08 107.79 277.63 108C278.04 108.27 278.47 108.54 278.9 108.79C279.24 108.98 279.62 109.24 279.62 109.63C279.62 109.78 279.56 109.92 279.45 110.02C279.5 110.05 279.55 110.09 279.6 110.13C279.86 110.33 280.07 110.58 280.22 110.87C280.34 111.22 280.49 111.57 280.67 111.89C281.02 112.38 281.67 112.49 282.09 113C282.5 113.5 282.5 114.24 282.83 114.81C283.3 115.62 284.36 116 284.69 116.88C284.79 117.16 284.8 117.47 284.87 117.76C285.07 118.49 285.59 119.07 286.07 119.64C287.81 121.73 288.93 124.27 289.29 126.97C289.41 125.27 290.54 123.77 291.96 122.84C292.34 122.57 292.79 122.29 292.86 121.84C292.96 121.26 292.4 120.75 292.44 120.17C292.48 119.89 292.59 119.62 292.77 119.39C293.41 118.47 294.1 117.59 294.86 116.76C295.27 116.31 295.73 115.75 295.56 115.17C295.43 114.73 294.97 114.46 294.72 114.08C294.43 113.6 294.44 113 294.76 112.54C294.99 112.22 295.36 111.99 295.47 111.61C295.6 111.17 295.31 110.69 295.4 110.23C295.4 110.21 295.4 110.19 295.4 110.18C295.35 110.11 295.3 110.04 295.26 109.96C295.15 109.59 295.05 109.22 294.97 108.84C294.91 108.67 294.85 108.51 294.77 108.35C294.57 108.01 294.44 107.64 294.39 107.25C294.4 106.86 294.53 106.48 294.77 106.18C295.32 105.52 296.11 105.12 296.96 105.05C297.8 104.98 298.64 105.03 299.47 105.18L307.67 106.36C308.3 106.46 308.94 106.55 309.56 106.7C310.15 106.8 310.71 107.04 311.19 107.41C312.14 108.23 312.22 109.67 312.18 110.94ZM262.09 50.65C262.37 50.68 262.65 50.66 262.93 50.59L262.09 50.65Z" />
			<path id="Path 25919" class="shp3" d="M264.24 71.66C263.84 72.01 263.37 72.26 262.86 72.4L260.49 73.25C259.21 73.7 257.87 74.17 256.52 74C255.76 73.91 252.52 73.43 252.03 72.84C251.29 71.93 253.9 70.59 254.8 69.82C255 69.67 255.18 69.51 255.35 69.33C255.69 68.92 255.64 68.35 255.6 67.84C255.43 66.54 255.37 65.23 255.42 63.92C255.45 63.6 255.5 63.29 255.56 62.99C255.89 61.45 257.32 62.01 258.44 62.42C259.8 62.86 261.11 63.43 262.36 64.12C262.74 64.31 263.07 64.59 263.32 64.94C263.81 65.68 263.62 66.66 263.54 67.6C263.47 68.33 263.47 69.03 263.93 69.56C264.16 69.76 264.37 69.98 264.56 70.22C264.78 70.72 264.65 71.3 264.24 71.66Z" />
			<path id="Path 25920" class="shp3" d="M231.62 47.66C231.95 46.18 232.03 44.66 232.43 43.2C232.71 42.25 233.06 41.32 233.47 40.42L234.94 36.99C235.08 36.59 235.31 36.22 235.63 35.94C235.98 35.73 236.37 35.62 236.78 35.64C238.21 35.58 239.72 36.03 240.7 37.08C241.68 38.14 241.99 39.85 241.21 41.06C240.28 42.51 238.24 42.81 237.03 44.03C236.25 44.81 235.87 45.9 235.64 46.98C235.04 49.78 235.24 52.68 235.05 55.54C234.99 56.43 234.82 57.44 234.06 57.9C233.59 58.13 233.08 58.23 232.56 58.19L230.38 58.23C230.01 58.23 228.68 58.46 228.44 58.18C228.01 57.7 228.99 55.29 229.16 54.76C229.56 53.57 230.04 52.41 230.49 51.24C230.89 50.2 231.62 48.79 231.62 47.66Z" />
			<path id="Path 25921" class="shp4" d="M276.73 152.3C276.23 154.22 274.72 155.72 273.94 157.56C272.77 160.3 273.3 163.66 271.65 166.15C271.11 166.9 270.46 167.57 269.73 168.13C269.32 168.48 268.87 168.78 268.39 169.03C267.9 169.3 267.32 169.37 266.78 169.23C266.07 168.99 265.65 168.23 265.58 167.49C265.56 167.25 265.56 167.01 265.58 166.77C265.65 166.28 265.76 165.79 265.91 165.31C266.31 163.96 266.71 162.61 267.11 161.26C267.36 160.53 267.52 159.77 267.59 158.99C267.63 158.15 267.1 157.06 267.33 156.28C267.43 155.93 267.81 155.61 267.99 155.32C268.24 154.89 268.43 154.43 268.56 153.95C268.84 153.03 269.02 152.03 269.6 151.25C269.97 150.79 270.41 150.38 270.9 150.03C271.26 149.72 271.68 149.48 272.13 149.34C272.58 149.26 273.03 149.28 273.47 149.4C274.03 149.52 274.59 149.68 275.13 149.87L275.16 149.87C275.83 150.11 276.53 150.48 276.74 151.16C276.85 151.53 276.84 151.92 276.73 152.3Z" />
			<path id="Path 25922" class="shp4" d="M312.17 111.35C312.15 111.86 312.09 112.44 311.69 112.76C311.34 112.99 310.93 113.08 310.52 113.04L310.43 113.04C309.24 113.04 308.03 112.97 306.9 113.34C306.05 113.63 305.26 114.15 304.37 114.25C303.14 114.39 301.98 113.72 300.9 113.13C299.87 112.58 298.82 112.08 297.74 111.63C297.04 111.34 295.59 111.16 295.25 110.38C295.14 110.02 295.04 109.65 294.96 109.27C294.9 109.1 294.84 108.94 294.76 108.78C294.56 108.44 294.43 108.07 294.38 107.68C294.39 107.29 294.52 106.91 294.76 106.61C295.31 105.96 296.1 105.56 296.95 105.49C297.78 105.42 298.63 105.47 299.46 105.62L307.66 106.8C308.29 106.89 308.93 106.98 309.55 107.14C310.14 107.24 310.7 107.48 311.17 107.85C312.14 108.66 312.22 110.09 312.17 111.35Z" />
			<path id="Path 25923" class="shp5" d="M304.97 113.48C303.97 115.59 304.69 118.08 304.51 120.41C304.35 121.72 304.06 123.01 303.62 124.26C303.23 125.5 302.85 126.74 302.35 127.94C301.94 128.94 301.45 129.94 301.07 130.96C300.46 132.59 300.07 134.41 298.83 135.62C298.27 138.35 297.55 141.32 295.31 142.98C293.36 144.42 290.64 144.47 288.37 143.6C286.09 142.73 284.25 141.06 282.62 139.27C280.99 137.47 279.53 135.52 277.78 133.84C276.78 132.9 275.72 132.03 274.6 131.24C273.47 130.42 272.31 129.65 271.12 128.92C270.39 128.43 269.57 128.07 268.7 127.88C268 127.74 267.26 127.88 266.66 128.28C266.52 128.37 266.39 128.48 266.29 128.61C265.99 129.02 265.76 129.48 265.62 129.97C264.22 133.62 260.47 135.49 257.47 137.97L254.73 140.24C254.36 140.55 253.95 141.01 254.13 141.45C254.26 141.68 254.46 141.86 254.7 141.95C256.29 142.73 258.16 143.05 259.47 144.25C259.95 144.69 260.41 145.27 261.06 145.3C261.41 145.28 261.74 145.21 262.06 145.08C263.08 144.8 264.16 145.02 265 145.66C265.23 145.89 265.5 146.08 265.8 146.21C266.04 146.28 266.3 146.3 266.56 146.26C267.27 146.21 268.02 146.15 268.65 146.46C269.29 146.78 269.81 147.53 270.56 147.58C270.92 147.61 271.35 147.49 271.7 147.52C271.89 147.53 272.07 147.63 272.18 147.79C272.26 147.97 272.31 148.16 272.33 148.36C272.47 148.83 272.93 149.12 273.23 149.5C273.69 150.09 273.76 150.9 273.71 151.65C273.56 153.99 272.52 156.19 270.79 157.79C270.3 158.28 269.68 158.63 269 158.78C268.3 158.93 267.58 158.61 267.22 157.99C267.14 157.74 267.03 157.49 266.89 157.26C266.35 156.67 265.15 157.3 264.65 156.67C264.35 156.28 264.57 155.65 264.27 155.24C263.98 154.83 263.28 154.91 262.73 154.88C262.1 154.85 261.51 154.55 260.89 154.39C259.89 154.13 258.85 154.23 257.82 154.16C256.97 154.09 256.13 153.95 255.3 153.76L251.06 152.9C248.36 152.35 245.66 151.79 243.09 150.81C242.11 150.43 241.12 149.97 240.42 149.18C239.86 148.47 239.51 147.63 239.38 146.74C238.78 143.19 241.98 140.15 242.38 136.57C242.52 135.27 243.05 134.03 243.54 132.82C244.44 130.65 245.35 128.49 246.25 126.32C246.39 125.91 246.58 125.53 246.81 125.16C247.19 124.7 247.63 124.28 248.1 123.91C249.36 122.76 250.27 121.28 250.71 119.63C250.74 119.45 250.82 119.28 250.93 119.13C251.05 119.03 251.18 118.95 251.32 118.88C251.81 118.56 252.02 117.95 251.82 117.4C252.25 117.36 252.59 117.02 252.61 116.59C252.59 116.41 252.6 116.23 252.65 116.05C252.73 115.88 252.93 115.79 253.04 115.64C253.23 115.39 253.17 115.04 253.14 114.73C253.12 114.53 253.12 114.33 253.14 114.13C253.21 113.42 253.52 112.77 254.03 112.27C254.83 111.49 255.96 111.69 257.06 111.5C258.15 111.27 259.22 110.92 260.25 110.48C263.14 109.34 266.19 108.64 269.28 108.39C272.4 108.15 275.52 108.64 278.4 109.84C278.82 110.01 279.22 110.24 279.58 110.51C279.84 110.71 280.05 110.96 280.2 111.25C280.32 111.6 280.47 111.94 280.65 112.27C281 112.75 281.68 112.91 282.07 113.37C282.46 113.83 282.49 114.61 282.81 115.18C283.28 115.99 284.35 116.36 284.67 117.25C284.77 117.53 284.78 117.83 284.85 118.12C285.03 118.85 285.57 119.42 286.05 119.99C287.8 122.08 288.91 124.62 289.27 127.32C289.38 125.63 290.52 124.14 291.94 123.21C292.32 122.96 292.77 122.68 292.84 122.23C292.94 121.65 292.38 121.14 292.42 120.56C292.46 120.28 292.57 120.01 292.75 119.78C293.39 118.86 294.08 117.99 294.84 117.16C295.25 116.71 295.71 116.16 295.54 115.57C295.41 115.13 294.95 114.87 294.7 114.48C294.41 114.01 294.42 113.4 294.74 112.95C294.97 112.63 295.34 112.4 295.45 112.02C295.58 111.58 295.29 111.1 295.38 110.65C295.5 110.28 295.75 109.97 296.07 109.76C296.51 109.35 297.01 109.02 297.56 108.78C298.44 108.44 299.42 108.57 300.35 108.7C301.91 108.91 303.66 109.25 304.54 110.55C305.1 111.37 305.39 112.61 304.97 113.48Z" />
			<path id="Path 25924" class="shp1" d="M312.17 111.35C312.15 111.86 312.09 112.44 311.69 112.76C311.34 112.99 310.93 113.08 310.52 113.04L310.43 113.04C310.56 112.35 311.41 111.95 311.55 111.25C311.6 110.81 311.47 110.37 311.19 110.04C310.47 109.08 309.33 108.54 308.19 108.15C304.97 107.05 301.52 106.79 298.18 107.4C297.27 107.55 296.38 107.83 295.55 108.21C295.27 108.39 295 108.58 294.75 108.78C294.55 108.44 294.42 108.07 294.37 107.68C294.38 107.29 294.51 106.91 294.75 106.61C295.3 105.96 296.09 105.56 296.94 105.49C297.77 105.42 298.62 105.47 299.45 105.62L307.65 106.8C308.28 106.89 308.92 106.98 309.54 107.14C310.13 107.24 310.69 107.48 311.16 107.85C312.14 108.66 312.22 110.09 312.17 111.35Z" />
			<path id="Path 25925" class="shp1" d="M276.73 152.3C276.23 154.22 274.72 155.72 273.94 157.56C272.77 160.3 273.3 163.66 271.65 166.15C271.11 166.9 270.46 167.57 269.73 168.13C269.32 168.48 268.87 168.78 268.39 169.03C267.9 169.3 267.32 169.37 266.78 169.23C266.07 168.99 265.65 168.23 265.58 167.49C265.56 167.25 265.56 167.01 265.58 166.77L265.6 166.82C265.89 167.52 266.36 168.26 267.11 168.38C267.67 168.42 268.23 168.22 268.65 167.84C269.75 166.95 270.39 165.64 271 164.37C271.47 163.45 271.85 162.49 272.12 161.5C272.25 160.93 272.32 160.35 272.45 159.78C273.09 157.03 275.24 154.79 275.72 152C275.76 151.81 275.77 151.61 275.75 151.42C275.68 151.16 275.59 150.92 275.46 150.69C275.34 150.43 275.26 150.16 275.21 149.88C275.87 150.12 276.58 150.49 276.79 151.17C276.87 151.54 276.86 151.93 276.73 152.3L276.73 152.3Z" />
			<path id="Path 25926" class="shp1" d="M271.71 147.52C271.4 148.33 270.88 149.03 270.2 149.57C269.25 150.29 268.14 150.77 266.97 150.97C266.42 151.11 265.85 151.1 265.3 150.95C264.56 150.69 264.03 150 263.28 149.8C262.74 149.65 262.16 149.78 261.61 149.7C260.63 149.57 259.86 148.82 259.07 148.22C256.64 146.39 253.46 145.8 251.03 143.98C250.92 143.91 250.83 143.82 250.77 143.71C250.72 143.59 250.7 143.46 250.72 143.33C250.73 142.23 250.98 141.13 251.45 140.13C251.83 139.43 252.29 138.78 252.82 138.18C255 135.51 257.18 132.83 259.78 130.58C260.88 129.64 262.07 128.76 263.45 128.33C264.21 128.1 265.73 127.87 266.66 128.27C266.52 128.37 266.4 128.48 266.29 128.6C265.99 129.02 265.77 129.48 265.62 129.97C264.22 133.62 260.47 135.49 257.47 137.97L254.73 140.24C254.36 140.55 253.95 141.01 254.13 141.45C254.26 141.68 254.46 141.86 254.7 141.95C256.29 142.73 258.16 143.05 259.47 144.25C259.95 144.69 260.41 145.27 261.06 145.3C261.41 145.28 261.74 145.21 262.06 145.08C263.08 144.8 264.16 145.02 265 145.66C265.23 145.89 265.5 146.08 265.8 146.21C266.04 146.28 266.3 146.3 266.56 146.26C267.27 146.21 268.02 146.15 268.65 146.46C269.29 146.78 269.81 147.53 270.56 147.58C270.93 147.61 271.36 147.48 271.71 147.52Z" />
			<path id="Path 25927" class="shp4" d="M241.07 102.32C240.44 102.72 239.77 103.18 239.51 103.89C239.29 104.46 239.39 105.12 239.14 105.68C238.88 106.24 238.3 106.63 238.18 107.23C238.09 107.67 238.26 108.13 238.18 108.56C238.1 108.79 238.04 109.02 238 109.26C237.96 109.75 238.39 110.16 238.8 110.43C240.6 111.6 242.85 111.85 244.86 111.1C245.75 110.77 246.55 110.22 247.4 109.8C248.23 109.32 249.18 109.09 250.14 109.13C250.69 109.19 251.22 109.39 251.77 109.46C252.32 109.57 252.89 109.4 253.29 109.01C253.46 108.78 253.57 108.51 253.62 108.22C254.09 106.39 253.88 104.45 253.44 102.62C253 100.78 252.33 99.01 251.86 97.18C251.53 95.82 251.27 94.44 250.72 93.15C250.16 91.87 249.22 90.68 247.91 90.19C247.81 90.14 247.69 90.12 247.58 90.15C247.5 90.18 247.42 90.24 247.36 90.31C246.33 91.4 245.55 92.71 245.08 94.15C244.56 95.74 244.41 97.44 243.93 99.04C243.73 99.7 243.46 100.6 242.93 101.11C242.41 101.62 241.67 101.93 241.07 102.32Z" />
			<path id="Path 25928" class="shp1" d="M253.63 108.21C253.58 108.5 253.46 108.77 253.28 109C252.88 109.39 252.31 109.56 251.76 109.45C251.21 109.38 250.69 109.18 250.14 109.12C249.18 109.07 248.23 109.3 247.4 109.78C246.55 110.21 245.73 110.74 244.85 111.08C243.56 111.57 242.15 111.65 240.81 111.31C240.1 111.13 239.42 110.84 238.81 110.43C238.39 110.16 237.97 109.77 238 109.26C238.05 109.02 238.11 108.79 238.18 108.57C238.27 108.13 238.1 107.67 238.18 107.24C238.31 106.64 238.89 106.24 239.14 105.68C239.4 105.13 239.3 104.47 239.51 103.89C239.77 103.18 240.45 102.73 241.08 102.32C241.71 101.91 242.46 101.59 242.97 101.1C243.04 101.02 243.1 100.94 243.15 100.85C243.51 100.29 243.78 99.67 243.94 99.01C244.43 97.41 244.56 95.72 245.08 94.12C245.55 92.69 246.34 91.38 247.37 90.28C247.43 90.21 247.5 90.16 247.58 90.12C247.7 90.1 247.81 90.11 247.92 90.16C249.22 90.65 250.16 91.85 250.72 93.13C251.28 94.41 251.51 95.79 251.86 97.15C252.33 98.98 253 100.76 253.44 102.59C253.88 104.43 254.1 106.38 253.63 108.21Z" />
			<path id="Path 25929" class="shp1" d="M263.54 67.59C260.3 68.62 256.8 67.04 255.42 63.93C255.45 63.61 255.5 63.3 255.56 63C255.89 61.46 257.32 62.02 258.44 62.43C259.8 62.87 261.11 63.44 262.36 64.13C262.74 64.32 263.07 64.6 263.32 64.95C263.81 65.68 263.62 66.66 263.54 67.59Z" />
			<path id="Ellipse 344" class="shp3" d="M261.53 67.57C257.84 67.57 254.87 64.59 254.87 60.91C254.87 57.22 257.84 54.25 261.53 54.25C265.21 54.25 268.19 57.22 268.19 60.91C268.19 64.59 265.21 67.57 261.53 67.57Z" />
			<path id="Path 25930" class="shp1" d="M279.6 110.69C279.6 111.24 278.85 111.42 278.3 111.39C276.3 111.27 274.34 110.72 272.36 110.89C269.86 111.12 267.57 112.5 265.06 112.62C264.09 112.67 263.11 112.53 262.16 112.71C260.92 112.94 259.82 113.69 258.57 113.79C257.48 113.89 256.4 113.48 255.31 113.52C254.55 113.57 253.81 113.78 253.14 114.14C253.21 113.43 253.53 112.78 254.03 112.28C254.83 111.5 255.96 111.7 257.06 111.51C258.16 111.28 259.23 110.93 260.26 110.49C263.15 109.35 266.19 108.65 269.29 108.4C272.4 108.15 275.52 108.65 278.4 109.84C278.82 110.01 279.22 110.24 279.58 110.51C279.6 110.57 279.61 110.63 279.6 110.69Z" />
			<path id="Path 25931" class="shp6" d="M258.45 73.07L255.75 72.07L254.61 71.65C254.14 71.46 253.66 71.33 253.16 71.27C251.85 71.17 250.62 72.04 249.93 73.15C249.23 74.25 248.97 75.58 248.74 76.87C248.44 78.63 248.18 80.4 247.96 82.17C247.73 83.78 247.62 85.4 247.61 87.02C247.69 91.14 248.56 95.21 249.52 99.22C249.99 101 250.35 102.81 250.59 104.63C250.67 105.39 250.7 106.14 250.78 106.9C250.87 107.75 251.01 108.59 251.15 109.43L251.95 114.22C252.95 113.51 254.09 112.88 255.31 112.85C256.4 112.81 257.48 113.21 258.57 113.12C259.82 113.02 260.92 112.27 262.16 112.04C263.11 111.86 264.09 112 265.06 111.95C267.57 111.83 269.87 110.44 272.36 110.22C274.35 110.04 276.31 110.6 278.3 110.72C278.85 110.75 279.6 110.57 279.6 110.02C279.6 109.63 279.22 109.37 278.88 109.18C277.29 108.23 275.79 107.15 274.37 105.96C273.05 104.92 271.72 103.85 270.82 102.45C268.64 99.07 269.39 94.5 267.54 90.93C266.03 88.03 267.54 84.23 267.54 80.97C267.54 79.34 267.54 77.69 267.15 76.11C266.91 75.22 266.61 74.35 266.26 73.51L264.96 70.23C264.94 70.13 264.88 70.05 264.81 69.98C264.72 69.92 264.62 69.89 264.51 69.89C263.74 69.84 262.97 70.09 262.36 70.58C261.75 71.07 261.36 71.79 260.76 72.3C260.11 72.87 259.26 73.37 258.45 73.07Z" />
			<path id="Path 25932" class="shp4" d="M262.8 71.18C263.01 70.27 263.24 69.32 263.85 68.61C264.46 67.89 265.57 67.52 266.36 68.03C267.25 68.61 267.29 69.94 268.05 70.69C268.72 71.33 269.72 71.38 270.62 71.46C272.25 71.61 273.85 71.99 275.38 72.58C275.67 72.67 275.94 72.84 276.17 73.06C276.58 73.53 276.5 74.25 276.7 74.84C276.99 75.6 277.77 76.09 278.07 76.84C278.41 77.68 278.07 78.62 277.79 79.48C277.29 81.03 276.97 82.64 276.48 84.2C276 85.75 275.3 87.28 274.15 88.46C273.65 88.98 272.89 89.46 272.23 89.15L271.97 90.99C271.9 91.39 271.9 91.79 271.97 92.18C272.05 92.58 272.35 92.89 272.74 93C272.79 93.28 273.1 93.42 273.34 93.58C273.71 93.83 273.96 94.22 274.04 94.65C274.12 95.09 274.02 95.54 273.77 95.91C273.56 96.19 273.25 96.41 273.15 96.75C273 97.24 273.35 97.75 273.79 98.02C274.22 98.28 274.73 98.41 275.17 98.66C276.08 99.19 276.57 100.22 276.88 101.23C277.12 101.99 277.31 102.81 277.88 103.36C278.1 103.57 278.37 103.73 278.58 103.95C278.94 104.38 279.15 104.92 279.17 105.48C279.26 106.18 279.11 106.89 278.74 107.48C278.07 108.43 276.83 108.72 275.74 109.15C273.97 109.87 272.52 111.17 270.96 112.28C270.32 112.79 269.58 113.14 268.78 113.3C267.7 113.45 266.64 112.97 265.55 112.93C264.9 112.93 264.25 113.02 263.62 113.18L261.63 113.61C261.73 112.06 260.88 110.51 260.4 109.04C259.5 106.26 259.34 103.29 259.55 100.38C259.76 97.47 260.36 94.6 260.94 91.74C261.35 89.74 261.31 87.65 261.94 85.71C262.53 83.84 263.38 82.04 263.68 80.1C264.19 76.95 262.09 74.28 262.8 71.18Z" />
			<path id="Path 25933" class="shp4" d="M277.95 77.34C278.13 77.68 278.26 78.04 278.33 78.42C278.49 79.01 278.78 79.55 279.18 80.01C279.51 80.3 279.81 80.64 280.06 81.01C280.37 81.59 280.25 82.29 280.4 82.92C280.56 83.61 281.04 84.21 281.11 84.92C281.12 85.13 281.14 85.33 281.17 85.53C281.39 86.33 282.57 86.53 282.84 87.33C283.01 87.86 282.71 88.43 282.77 88.98C282.81 89.15 282.82 89.32 282.8 89.5C282.72 89.69 282.59 89.86 282.42 89.98C281.31 91.04 280.55 92.39 280.23 93.88C279.9 95.36 279.74 96.87 279.72 98.39L278.42 96.67C278.28 96.46 278.11 96.28 277.9 96.13C277.73 96.03 277.54 95.98 277.37 95.88C276.88 95.6 276.68 95.01 276.49 94.48C275.97 93 275.18 91.64 274.16 90.44C273.63 89.82 273.02 89.19 272.9 88.38C272.87 88.01 272.89 87.64 272.96 87.27C273.29 85.09 273.65 82.85 274.71 80.92C275.21 80.01 275.85 79.19 276.33 78.27C276.65 77.67 277.1 76.08 277.95 77.34Z" />
			<path id="Path 25934" class="shp4" d="M245.09 79.43C245.1 79.71 245.03 79.99 244.89 80.23C244.63 80.53 244.22 80.66 243.83 80.57C243.45 80.47 243.1 80.3 242.78 80.07C241.85 79.49 240.93 78.9 240 78.31C239.48 78 238.98 77.66 238.5 77.29C237.77 76.67 237.11 75.98 236.53 75.22C234.91 73.22 233.48 71.05 231.67 69.22C231.18 68.72 230.67 68.24 230.2 67.72C229.55 66.96 228.96 66.16 228.42 65.33C227.9 64.56 227.36 63.71 227.45 62.79C227.51 62.27 227.76 61.79 227.83 61.27C227.9 60.76 227.71 60.13 227.21 59.99C227.15 59.97 227.09 59.96 227.03 59.96C226.93 59.95 226.83 59.92 226.74 59.89C226.27 59.7 226.34 58.98 226.68 58.61C227.01 58.23 227.5 58.02 227.81 57.61C227.95 57.36 228.11 57.13 228.28 56.9C228.5 56.71 228.77 56.58 229.06 56.52C230.98 55.95 233.01 55.87 234.97 56.29C235.3 56.37 235.68 56.5 235.78 56.82C235.82 56.98 235.82 57.14 235.78 57.3C235.63 57.96 235.55 58.63 235.53 59.3C235.53 59.44 235.53 59.58 235.55 59.72C235.71 61.13 236.62 62.33 237.52 63.43C238.57 64.74 239.65 66.04 240.73 67.34C241.31 68.1 241.97 68.79 242.68 69.43C243.34 69.98 244.21 70.42 244.73 71.13C245.15 71.71 245.01 72.49 245.06 73.18C245.21 75.26 245.23 77.35 245.09 79.43Z" />
			<path id="Path 25935" class="shp3" d="M287.39 93.33C287.72 93.01 288.02 92.66 288.28 92.28C288.56 91.81 288.78 91.31 288.94 90.79L290.88 85.31C291.18 84.45 291.49 83.58 291.88 82.73C292.28 81.83 292.75 80.95 293.18 80.07C294.31 77.76 295.17 75.33 295.77 72.83C295.88 72.48 295.91 72.12 295.88 71.76C295.78 71.19 295.35 70.74 294.93 70.33C294.51 69.88 294.03 69.48 293.51 69.16C292.98 68.83 292.34 68.72 291.73 68.87C290.88 69.12 290.34 69.99 290.15 70.87C289.95 71.74 290.02 72.64 289.94 73.53C289.82 74.81 289.38 76.05 289.27 77.33C289.22 78.07 289.27 78.82 289.18 79.56C289.02 80.53 288.68 81.46 288.19 82.31C287.1 84.34 285.64 86.14 283.88 87.61C283.4 87.97 282.96 88.38 282.59 88.85C282.27 89.32 282.06 89.85 281.96 90.41C281.74 91.25 281.84 92.15 282.23 92.93C282.78 93.85 283.82 94.26 284.81 94.47C286.16 94.74 286.47 94.29 287.39 93.33Z" />
			<path id="Path 25936" class="shp4" d="M261.57 51.26C262.15 50.15 263.34 49.51 264.58 49.62C265.83 49.84 266.85 50.75 267.2 51.97C267.36 52.47 267.42 53.02 267.69 53.44C268.11 54.09 268.87 54.27 269.45 54.74C270.14 55.38 270.54 56.28 270.57 57.22C270.6 58.17 270.45 59.12 270.12 60.02C269.99 60.4 269.87 60.79 269.79 61.19C269.72 61.58 269.72 61.97 269.66 62.36C269.51 63.37 268.96 64.28 268.13 64.88C268.01 64.97 267.87 65.03 267.72 65.03C267.46 65 267.3 64.7 267.2 64.42C266.67 62.89 266.8 61.02 265.82 59.81C265.38 59.31 264.84 58.91 264.24 58.63C264 58.47 263.72 58.37 263.43 58.33C263.01 58.35 262.61 58.5 262.27 58.75C261.57 59.22 260.79 59.57 259.96 59.77C259.13 59.97 258.26 59.78 257.58 59.26C257.12 58.88 256.79 58.31 256.28 58.01C255.77 57.72 255.23 57.73 254.73 57.53C254.08 57.25 253.6 56.69 253.42 56.01C253.23 55.33 253.38 54.6 253.81 54.04C254.14 53.64 254.63 53.41 254.93 52.97C255.31 52.4 255.28 51.61 255.46 50.93C255.68 50.05 256.31 49.33 257.16 48.99C257.98 48.71 258.89 48.9 259.53 49.49C259.86 49.79 260.13 50.17 260.45 50.49C261.11 51.11 262.04 51.36 262.92 51.15" />
			<path id="Path 25937" class="shp1" d="M267.04 100.28C266.65 100.63 266.51 101.19 266.69 101.69C266.76 101.85 270.2 101.19 270.56 101.14C271.47 101.01 273.06 101.07 273.67 100.24C274.75 98.77 271.39 99.1 270.77 99.15C269.6 99.25 267.93 99.41 267.04 100.28Z" />
			<path id="Path 25938" class="shp4" d="M235.77 57.31C235.63 57.97 235.54 58.64 235.52 59.31C234.52 59.52 233.48 59.18 232.52 58.85L229.77 57.91C229.42 57.69 228.96 57.77 228.72 58.11C228.27 58.57 227.66 59.44 227.05 59.96C226.95 59.95 226.85 59.92 226.76 59.89C226.3 59.7 226.37 58.98 226.7 58.61C227.03 58.23 227.53 58.02 227.83 57.61C227.97 57.36 228.13 57.13 228.3 56.9C228.53 56.71 228.79 56.58 229.08 56.52C231 55.95 233.03 55.87 234.99 56.29C235.32 56.37 235.7 56.5 235.8 56.82C235.84 56.99 235.83 57.16 235.77 57.31Z" />
			<path id="Path 25939" class="shp1" d="M235.77 57.31C235.63 57.97 235.54 58.64 235.52 59.31C234.52 59.52 233.48 59.18 232.52 58.85L229.77 57.91C229.42 57.69 228.96 57.77 228.72 58.11C228.27 58.57 227.66 59.44 227.05 59.96C226.95 59.95 226.85 59.92 226.76 59.89C226.3 59.7 226.37 58.98 226.7 58.61C227.03 58.23 227.53 58.02 227.83 57.61C227.97 57.36 228.13 57.13 228.3 56.9C228.53 56.71 228.79 56.58 229.08 56.52C231 55.95 233.03 55.87 234.99 56.29C235.32 56.37 235.7 56.5 235.8 56.82C235.84 56.99 235.83 57.16 235.77 57.31Z" />
			<path id="Path 25940" class="shp1" d="M260.97 120.55C261.45 120.71 261.97 120.94 262.13 121.42L258.28 120.44L256.28 119.93C255.92 119.84 254.66 119.74 254.43 119.46C254.09 119.06 255.27 119.34 255.49 119.37C256.13 119.46 256.78 119.56 257.42 119.68C258.64 119.9 259.8 120.25 260.97 120.55Z" />
			<path id="Path 25941" class="shp1" d="M262.47 123.96C262.13 123.74 261.18 123.77 260.77 123.67C260.17 123.53 259.58 123.34 258.99 123.15C257.79 122.76 256.61 122.32 255.38 122.03C255.15 121.98 254.38 121.97 254.42 121.68C254.45 121.4 255.19 121.3 255.37 121.28C256.46 121.2 257.82 121.71 258.83 122.08C260.12 122.54 261.34 123.17 262.47 123.96Z" />
			<path id="Path 25942" class="shp1" d="M260.02 117.5C258.8 117.17 257.69 116.41 256.43 116.26C256.1 116.28 255.78 116.18 255.51 115.98C255.37 115.84 255.26 115.65 255.22 115.45C256.06 115.41 257.04 115.76 257.81 116.1C258.23 116.28 258.63 116.5 259.02 116.75C259.3 116.92 259.72 117.41 260.02 117.5Z" />
			<path id="Path 25943" class="shp4" d="M283.32 87.68C282.9 90.54 284.63 93.29 287.41 94.12C287.24 94.91 286.43 95.34 285.85 95.91C285.04 96.7 284.62 97.88 283.66 98.48C282.59 99.14 281.21 98.89 280 98.61C279.88 98.59 279.78 98.54 279.71 98.46C279.68 98.42 279.67 98.37 279.66 98.33C279.25 96.85 278.99 95.27 279.4 93.8C279.74 92.54 280.53 91.46 281.17 90.35C281.81 89.24 281.87 88.05 283.32 87.68Z" />
			<path id="Path 25944" class="shp4" d="M253.54 68.58C252.25 68.68 251 69.06 249.88 69.7C249.13 70.12 248.37 70.7 247.51 70.59C247.01 70.54 246.52 70.26 246.03 70.39C245.75 70.51 245.49 70.66 245.26 70.85C245.03 71.04 244.71 71.09 244.42 70.98L244.09 75.59C243.96 77.34 243.84 79.13 244.26 80.84C244.48 81.71 244.95 82.5 245.01 83.39C245.06 84.28 244.98 85.19 245.04 86.08C245.1 86.91 245.29 87.73 245.33 88.56C245.43 90.12 245.04 91.67 244.67 93.2C244.1 95.44 243.76 97.74 242.67 99.77C242.36 100.33 242 100.9 242 101.54C242 101.62 242 101.7 242.02 101.78C241.69 101.96 241.38 102.13 241.1 102.31C240.46 102.72 239.79 103.18 239.53 103.89C239.32 104.46 239.41 105.12 239.16 105.68C238.91 106.24 238.33 106.63 238.2 107.23C238.11 107.67 238.29 108.13 238.2 108.56C238.13 108.79 238.07 109.02 238.02 109.25C237.99 109.75 238.41 110.16 238.83 110.43C239.44 110.83 240.12 111.13 240.83 111.31L242.81 103.41L242.81 103.41C244.63 100.06 246.14 96.55 247.32 92.93C247.66 91.75 248.1 90.6 248.62 89.48C249 88.85 249.33 88.2 249.62 87.52C249.93 86.68 249.96 85.78 250.1 84.89C250.28 83.86 250.54 82.84 250.88 81.85C251.24 80.78 251.66 79.71 251.73 78.59C251.84 76.99 251.26 75.29 251.88 73.8C252.14 73.25 252.49 72.73 252.9 72.28C253.76 71.22 254.54 70.12 255.4 69.07C254.95 68.59 254.21 68.54 253.54 68.58Z" />
			<g id="Group 26645" style="opacity: 0.102">
				<path id="Path 25945" class="shp7" d="M262.93 50.16L262.51 50.19L262.47 50.22C262.62 50.22 262.78 50.2 262.93 50.16Z" />
				<path id="Path 25946" class="shp7" d="M270.55 57.07C270.48 57.74 270.34 58.39 270.12 59.02C269.99 59.4 269.87 59.79 269.79 60.19C269.72 60.58 269.72 60.97 269.66 61.36C269.51 62.37 268.96 63.28 268.13 63.88C268.01 63.97 267.87 64.03 267.71 64.03C267.46 64 267.3 63.7 267.2 63.42C266.67 61.89 266.8 60.03 265.82 58.81C265.38 58.32 264.84 57.92 264.24 57.63C264 57.47 263.72 57.37 263.44 57.33C263.01 57.35 262.61 57.5 262.27 57.75C261.57 58.23 260.79 58.57 259.96 58.77C259.13 58.97 258.26 58.78 257.58 58.26C257.12 57.88 256.79 57.31 256.28 57.01C255.77 56.72 255.23 56.74 254.73 56.53C254.1 56.26 253.62 55.71 253.43 55.05C253.42 55 253.41 54.96 253.41 54.92C253.32 55.29 253.33 55.68 253.43 56.05C253.62 56.71 254.1 57.26 254.73 57.53C255.23 57.73 255.8 57.74 256.28 58.01C256.75 58.29 257.12 58.88 257.58 59.26C258.26 59.78 259.13 59.97 259.96 59.77C260.79 59.57 261.57 59.22 262.27 58.75C262.61 58.5 263.01 58.35 263.44 58.33C263.72 58.37 264 58.47 264.24 58.63C264.83 58.92 265.36 59.32 265.8 59.82C266.77 61.03 266.65 62.9 267.18 64.43C267.27 64.71 267.43 65.01 267.69 65.04C267.85 65.04 268.01 64.98 268.13 64.88C268.96 64.28 269.51 63.36 269.66 62.35C269.72 61.96 269.73 61.57 269.79 61.18C269.88 60.78 269.99 60.39 270.13 60.01C270.45 59.11 270.6 58.16 270.57 57.21C270.56 57.17 270.56 57.12 270.55 57.07Z" />
			</g>
			<path id="Path 25947" class="shp8" d="M249.48 83.8L249.25 86.84C249.22 87.25 248.43 97.09 242.6 108.58C237.61 118.43 227.89 131.27 209.53 138.48C208.1 139.05 206.61 139.58 205.07 140.07L203.35 134.67C207.67 133.32 211.82 131.5 215.75 129.25C225.11 123.85 232.38 116.14 237.45 106.22C240.14 100.93 242.06 95.29 243.15 89.46L222.26 89.46L222.26 83.8L249.48 83.8Z" />
			<path id="Path 25948" class="shp9" d="M207.28 138.49C225.64 131.27 235.36 118.44 240.35 108.58C246.18 97.09 246.97 87.27 247 86.85L247.22 83.81L249.56 83.81L249.33 86.85C249.3 87.26 248.51 97.09 242.68 108.58C237.69 118.44 227.97 131.27 209.61 138.49C208.18 139.05 206.69 139.58 205.15 140.08L204.92 139.37C205.73 139.08 206.51 138.79 207.28 138.49Z" />
			<path id="Path 25949" class="shp8" d="M170.54 134.67L168.82 140.07C167.28 139.58 165.79 139.05 164.36 138.48C146 131.27 136.28 118.43 131.29 108.58C125.46 97.09 124.67 87.26 124.64 86.84L124.42 83.8L151.61 83.8L151.61 89.46L130.73 89.46C131.82 95.29 133.74 100.93 136.44 106.22C141.51 116.14 148.78 123.85 158.14 129.25C162.06 131.5 166.22 133.32 170.54 134.67L170.54 134.67Z" />
			<path id="Path 25950" class="shp10" d="M166.6 138.49C148.25 131.27 138.52 118.44 133.53 108.58C127.71 97.09 126.92 87.27 126.89 86.85L126.66 83.81L124.33 83.81L124.55 86.85C124.58 87.26 125.38 97.09 131.2 108.58C136.2 118.44 145.92 131.27 164.27 138.49C165.7 139.05 167.19 139.58 168.73 140.08L168.96 139.37C168.16 139.08 167.37 138.79 166.6 138.49Z" />
			<path id="Path 25951" class="shp8" d="M218.36 186.83L218.36 217.36L155.52 217.36L155.52 186.83L157.52 184.17C177.89 176.94 182.01 158.09 182.84 150.63C182.96 149.6 183.03 148.57 183.05 147.53L190.82 147.53C190.83 148.57 190.9 149.6 191.03 150.63C191.86 158.09 195.99 176.95 216.34 184.17L218.36 186.83Z" />
			<path id="Rectangle 23382" class="shp1" d="M155.52 186.83L218.36 186.83L218.36 190.66L155.52 190.66L155.52 186.83Z" />
			<path id="Path 25952" class="shp10" d="M160.85 184.17C181.22 176.94 185.34 158.09 186.17 150.63C186.29 149.6 186.36 148.57 186.38 147.53L183.05 147.53C183.03 148.57 182.96 149.6 182.84 150.63C182 158.09 177.87 176.95 157.52 184.17L155.52 186.83L155.52 217.36L158.85 217.36L158.85 186.83L160.85 184.17Z" />
			<path id="Path 25953" class="shp1" d="M145.98 83.8L151.61 83.8L151.61 89.46L146.48 89.46C146.28 87.6 146.11 85.71 145.98 83.8Z" />
			<path id="Path 25954" class="shp1" d="M170.54 134.67L168.82 140.07C167.28 139.58 165.79 139.05 164.36 138.48C162 135.6 159.92 132.51 158.14 129.25C162.06 131.5 166.22 133.32 170.54 134.67Z" />
			<path id="Path 25955" class="shp1" d="M203.35 134.67C207.66 133.32 211.82 131.5 215.75 129.25C213.96 132.52 211.88 135.61 209.53 138.49C208.1 139.05 206.61 139.58 205.07 140.07L203.35 134.67Z" />
			<path id="Path 25956" class="shp1" d="M227.91 83.8C227.78 85.71 227.61 87.6 227.41 89.46L222.27 89.46L222.27 83.8L227.91 83.8Z" />
			<path id="Path 25957" class="shp1" d="M191.04 150.63C188.33 151.16 185.55 151.16 182.85 150.63C182.97 149.6 183.04 148.57 183.06 147.53L190.83 147.53C190.85 148.57 190.92 149.6 191.04 150.63Z" />
			<path id="Path 25958" class="shp8" d="M146.64 74.42C146.79 116.41 164.77 150.36 186.95 150.36C209.12 150.36 227.1 116.41 227.25 74.42L146.64 74.42Z" />
			<path id="Path 25959" class="shp10" d="M153.81 74.42L146.64 74.42C146.79 116.41 164.77 150.36 186.95 150.36C188.15 150.36 189.34 150.26 190.53 150.06C170.03 146.63 153.94 114.12 153.81 74.42Z" />
			<path id="Rectangle 23383" class="shp4" d="M165.57 198.52L208.32 198.52L208.32 209.51L165.57 209.51L165.57 198.52Z" />
			<path id="Path 25960" class="shp10" d="M167.57 200.02L208.32 200.02L208.32 198.52L165.57 198.52L165.57 209.51L167.57 209.51L167.57 200.02Z" />
			<path id="Path 25961" fill-rule="evenodd" class="shp11" d="M123.85 124.17C123.85 124.17 122.12 133.32 122.12 135.87C122.12 138.42 122.63 144.75 122.63 144.75L121.01 144.75L121.01 144.69L116.51 144.13C116.37 144.61 116.2 145.09 116 145.55C116.15 145.49 116.3 145.42 116.44 145.35C116.44 145.35 114.86 147.06 115.58 150.43C116.31 153.79 114.21 164.08 114.21 164.08L112.21 172.92L112.21 175.35L111.36 177.57C111.36 177.57 112.34 178.89 111.87 179.45C111.48 179.97 111.23 180.59 111.15 181.24C111.15 181.5 110.5 182.78 110.5 182.78L110.2 184.65C110.2 184.65 110.62 186.83 110.2 188.28C109.78 189.73 106.79 198.44 106.79 198.44C106.79 198.44 106.39 205.48 104.39 206.51L104.39 207.06C104.39 207.06 107.47 208.04 106.91 210.31C106.9 210.36 106.88 210.41 106.86 210.46L106.92 210.51C107.25 210.76 107.64 211.05 108.06 211.31C108.22 211.33 113.42 212.09 113.79 214.36C113.79 214.36 113.79 216.03 110.5 215.81C107.21 215.6 106.14 215.09 106.14 215.09C106.14 215.09 102.99 213.51 101.15 213.68C99.31 213.85 96.57 213.25 96.57 213.25L96.6 213.19C96.65 213.1 96.71 213.01 96.76 212.93L96.32 212.95L96.32 207.62C96.32 207.62 98.88 201.23 98.54 199.86C98.2 198.48 102.3 182.83 102.3 182.83C102.25 181.74 102.33 180.65 102.52 179.58C102.81 178.3 103.5 175.27 102.99 174.16C102.94 174.04 102.91 173.91 102.89 173.78C102.45 171.2 102.22 158.34 102.22 157.95C102.21 157.97 91.28 171.19 87.48 172.13C87.48 172.13 84.3 175.26 80.71 171.63C77.12 168 71.48 165.48 71.48 165.48L62.5 157.49C62.5 157.49 59.56 156.81 59.56 155.74C59.55 155.17 59.59 154.61 59.65 154.05L59.4 154.05C58.34 154.05 57.1 154.08 56.19 154.11C56.61 154.22 57.04 154.25 57.47 154.21C56.98 154.26 51.5 155.04 50.62 154.22C49.73 153.39 50.41 152.62 50.41 152.62C50.41 152.62 51.73 149.02 57.29 148.66C59.29 148.52 61.11 148.39 62.62 148.26L62.93 148.24C63.97 147.67 65.31 147.35 67.07 147.5C67.07 147.5 69.25 147.79 69.38 151.5C69.38 151.5 69.46 153.07 70.49 153.5C71.14 153.79 71.67 154.29 72.03 154.9C72.03 154.9 75.02 156.19 75.23 156.44C75.44 156.7 83.27 161.95 83.27 161.95C83.27 161.95 86.6 161.35 88.82 155.5L93.15 148.93C93.15 148.93 93.6 144.72 95.97 141.93C95.7 141.52 96.65 140.55 96.53 140.31C96.51 140.13 96.54 139.95 96.59 139.78C96.75 139.1 97.03 138.47 97.41 137.89L97.51 137.58C97.51 137.58 97.61 137.52 97.77 137.4C98.02 137.09 98.29 136.81 98.6 136.56C99.8 135.59 100.85 134.44 101.72 133.17C102.79 131.48 102.34 126.92 101.91 123.99C101.87 125.6 101.97 127.24 101.87 128.84C101.86 129.48 101.71 130.12 101.41 130.69C100.69 131.86 99.17 132.11 97.75 132.14C97.53 132.14 97.31 132.14 97.1 132.14L92.06 132.09C91.84 132.09 91.64 132.09 91.41 132.09C91.07 132.11 90.73 132.19 90.42 132.33C89.21 132.91 88.97 134.5 88.31 135.66C87.52 137.02 86.03 137.86 84.49 138.17C84.13 138.24 83.77 138.28 83.41 138.31L83.15 138.33L82.89 138.33C81.83 138.34 80.77 138.25 79.73 138.08C77.6 137.75 75.38 137.2 73.83 135.71C76.78 135.19 80.25 134.25 81.23 131.41C78.63 131.47 76.09 130.63 74.04 129.02C78.28 127.5 82.81 125.75 85.42 122.08C88.33 117.92 88.01 112.12 85.75 107.57C84.59 105.24 82.92 102.74 83.68 100.24C84.21 98.55 85.69 97.47 87.3 96.61L86.94 95.85C86.94 95.85 79.28 84.73 78.28 83.63C77.28 82.53 75.98 79.28 75.98 79.28C75.98 79.28 69.14 70.32 70.68 68.27C72.22 66.21 79.14 78.01 79.65 79.98C80.16 81.94 87.09 89.11 87.09 89.11C87.09 89.11 89.31 91.92 90.42 92.78C90.93 93.2 91.41 93.66 91.85 94.16C92.95 93.33 93.81 92.29 94.01 90.95C94.11 90.31 94.04 89.6 94.28 88.98C94.75 87.75 96.03 87.3 97.61 87.35C101.01 87.4 105.81 89.83 106.68 91.68C106.95 92.25 107.1 92.88 107.12 93.52C107.89 93.89 108.59 94.4 109.18 95.02C111.83 97.78 111.92 102.11 109.38 104.97C109.41 105.02 109.44 105.08 109.48 105.13C109.87 105.63 110.34 106.06 110.87 106.4L110.97 106.44C111.03 106 111.78 101.08 113.57 100.11C115.46 99.08 115.28 91.57 115.28 91.57C115.24 91.5 115.19 91.42 115.16 91.34C114.12 89.16 115.64 82.11 115.98 80.39C116.32 78.59 116.82 72.62 116.82 72.62C116.82 72.62 114.09 60.85 118.45 60.07C122.81 59.3 120.5 72.62 120.5 72.62L119.94 92.47L119.94 92.71C120.35 92.76 120.6 92.76 120.6 92.76C120.6 92.76 117.86 107.87 118.21 109.5C118.55 111.12 123.08 114.7 123.85 114.96C124.62 115.22 123.85 124.17 123.85 124.17ZM57.5 154.2C57.49 154.21 57.48 154.21 57.47 154.21C57.48 154.21 57.49 154.2 57.5 154.2ZM103.89 107.44C103.26 107.44 102.63 107.37 102.02 107.21C102.02 107.31 102.02 107.41 102.02 107.5L102.09 107.45C102.16 107.38 102.23 107.4 102.3 107.48L102.35 107.45C102.66 107.17 102.89 108.46 103.33 108.69L103.39 108.66L103.59 108.34L103.76 108.48L103.85 108.35C103.86 108.08 103.89 107.82 103.89 107.57C103.89 107.53 103.89 107.49 103.89 107.44ZM118.78 137.46L118.94 137.04L118.84 137.04C118.82 137.18 118.8 137.32 118.78 137.46ZM102.49 212.59L102.46 212.57L102.15 212.36L101.81 212.42L102.43 212.57L102.49 212.59ZM108.08 211.32C108.28 211.45 108.48 211.57 108.69 211.68C108.41 211.49 108.14 211.36 108.08 211.32Z" />
			<path id="Path 25962" class="shp12" d="M121.05 130.75L117.02 141.26L118 141.26L114.21 144.29L121.05 145.14L121.05 130.75Z" />
			<path id="Path 25963" class="shp1" d="M121.05 130.75L117.02 141.26L116.01 140.99L114.21 144.29L121.05 145.14L121.05 130.75Z" />
			<path id="Path 25964" class="shp12" d="M114.73 137.47L121.05 137.47L123.38 118.37L114.73 118.37L114.73 137.47Z" />
			<path id="Path 25965" class="shp1" d="M114.73 137.47L121.05 137.47L123.38 118.37L114.73 118.37L114.73 137.47Z" />
			<path id="Path 25966" class="shp13" d="M102.38 122.9L103.74 122.67L106.88 122.13C106.88 122.13 116.3 120.01 118.25 119.84C119.42 119.68 120.57 119.35 121.66 118.86C122.17 118.64 122.49 118.48 122.49 118.48L119.1 112.28L113.83 108.37C113.83 108.37 110.5 107.66 109.09 105.73C108.45 104.88 108.29 103.76 108.65 102.77C109.51 100.1 103.52 105.32 103.52 105.32C103.52 105.32 103.58 106.57 103.52 108.16C103.52 108.47 103.49 108.8 103.47 109.13C103.47 109.35 103.44 109.57 103.42 109.8C103.27 111.38 102.97 113.01 102.38 113.98C100.93 116.36 102.38 122.9 102.38 122.9Z" />
			<path id="Path 25967" class="shp1" d="M103.52 108.29L103.65 108.29C103.89 108.29 104.09 107.78 104.32 107.76C106.2 107.58 107.91 107.19 109.1 105.86C108.46 105.01 108.3 103.9 108.66 102.9C109.52 100.24 103.53 105.45 103.53 105.45C103.53 105.45 103.59 106.7 103.52 108.29Z" />
			<path id="Path 25968" class="shp13" d="M96.23 100.74C96.23 104.77 99.5 108.04 103.53 108.04C103.77 108.04 104 108.04 104.24 108C108.16 107.62 111.07 104.19 110.81 100.26C110.56 96.33 107.23 93.31 103.29 93.44C99.35 93.57 96.23 96.8 96.23 100.74Z" />
			<path id="Path 25969" class="shp4" d="M93.99 89.66C93.75 90.28 93.82 90.97 93.72 91.62C93.37 93.99 90.96 95.41 88.78 96.4C86.6 97.4 84.14 98.57 83.45 100.86C82.69 103.33 84.35 105.82 85.5 108.14C87.75 112.66 88.07 118.43 85.17 122.57C82.59 126.23 78.11 127.97 73.89 129.49C75.92 131.09 78.44 131.93 81.03 131.87C80.06 134.69 76.61 135.63 73.68 136.15C75.22 137.63 77.43 138.17 79.54 138.5C81.08 138.74 82.66 138.9 84.2 138.59C85.74 138.28 87.2 137.44 87.99 136.09C88.66 134.93 88.89 133.36 90.09 132.77C90.63 132.56 91.22 132.48 91.8 132.53L96.79 132.58C98.35 132.58 100.19 132.46 100.99 131.13C101.29 130.56 101.45 129.93 101.45 129.29C101.66 126.01 101.03 122.55 102.38 119.56C102.79 118.66 100.18 117.23 100.45 116.27C101.39 112.98 101.63 110.4 101.62 106.98C101.62 104.33 103.34 102.05 104.76 99.81C106.19 97.58 107.38 94.75 106.25 92.36C104.99 89.68 95.48 85.8 93.99 89.66Z" />
			<path id="Path 25970" class="shp13" d="M100.64 211.61L101.91 212.46L102.11 212.59L102.14 212.61L103.65 213.61L107.18 214.2L110.27 213.99C110.27 213.99 111.17 212.12 109.76 212.17C109.31 212.14 108.88 212.02 108.48 211.8L108.29 211.7L108.29 211.7C108.09 211.59 107.88 211.47 107.69 211.35L107.69 211.35C107.27 211.08 106.88 210.8 106.56 210.55C106.09 210.19 105.78 209.92 105.78 209.92L100.64 211.61Z" />
			<path id="Path 25971" class="shp1" d="M101.93 212.46L102.12 212.59L102.16 212.61L103.67 213.61L107.19 214.2L110.29 213.99C110.29 213.99 111.18 212.12 109.78 212.17C109.33 212.14 108.89 212.02 108.5 211.8C108.75 211.99 108.95 212.2 108.97 212.38C109.03 212.85 106.68 213.71 106.68 213.71L103.37 212.83C103.37 212.83 102.81 212.67 102.04 212.47L101.97 212.45L101.93 212.46Z" />
			<path id="Path 25972" class="shp4" d="M96.26 213.27C96.26 213.27 98.98 213.86 100.8 213.69C102.63 213.52 105.77 215.09 105.77 215.09C105.77 215.09 106.84 215.59 110.1 215.81C113.37 216.02 113.37 214.36 113.37 214.36C113 212.11 107.83 211.36 107.68 211.33L107.68 211.33L107.68 211.33L107.68 211.33C107.74 211.36 108.01 211.5 108.28 211.68L108.28 211.68C108.65 211.92 109.04 212.24 109.07 212.49C109.13 212.96 106.78 213.82 106.78 213.82L103.47 212.95C103.47 212.95 102.91 212.78 102.14 212.59L102.07 212.59C100.93 212.27 99.77 212.04 98.6 211.87C97.17 211.72 96.44 212.93 96.29 213.2C96.28 213.22 96.27 213.24 96.26 213.27Z" />
			<path id="Path 25973" class="shp13" d="M53.48 153.37L54.92 154.48C54.92 154.48 55.34 154.46 55.97 154.44L56.17 154.44C57.06 154.4 58.3 154.37 59.35 154.37C60.02 154.34 60.7 154.38 61.38 154.48C62.09 154.74 63.37 150.37 63.37 150.37L61.93 150.03L61.45 149.92L61.12 149.84L59.94 149.56L56.38 149.97L53.87 151.58L53.48 153.37Z" />
			<path id="Path 25974" class="shp1" d="M53.48 153.37L54.92 154.48C54.92 154.48 55.34 154.46 55.97 154.44C55.68 154.33 55.44 154.11 55.3 153.84C54.37 151.25 58.99 150.15 58.99 150.15L61.15 150.05L61.57 150.03L61.9 150.03L61.42 149.92L61.09 149.84L59.91 149.56L56.35 149.97L53.84 151.58L53.48 153.37Z" />
			<path id="Path 25975" class="shp4" d="M50.63 154.54C51.51 155.35 57.22 154.54 57.46 154.52C57.03 154.57 56.59 154.54 56.17 154.43C55.74 154.36 55.37 154.09 55.17 153.71C54.23 151.12 58.86 150.02 58.86 150.02L61.02 149.93L61.43 149.91L66.67 149.68L66.92 148.24C66.92 148.24 65.22 148.4 62.55 148.61C61.05 148.74 59.22 148.87 57.24 149C51.73 149.37 50.41 152.95 50.41 152.95C50.41 152.95 49.74 153.71 50.63 154.54Z" />
			<path id="Path 25976" class="shp13" d="M114.73 92.02C114.77 92.1 114.81 92.18 114.86 92.25L116.13 94.12L119.44 94.45L119.48 93.14L120.04 73.39C120.04 73.39 122.33 60.15 118 60.91C113.67 61.67 116.38 73.39 116.38 73.39C116.38 73.39 115.89 79.33 115.55 81.12C115.21 82.84 113.7 89.86 114.73 92.02Z" />
			<path id="Path 25977" class="shp13" d="M107.3 141.06L108.24 142.68L110.35 146.28C110.35 146.28 114.18 147.69 115.16 146.62C115.69 146.03 116.27 144 116.68 142.29C117.01 140.9 117.23 139.73 117.23 139.73L107.3 141.06Z" />
			<path id="Path 25978" class="shp1" d="M107.3 141.07L108.24 142.68C108.3 142.63 108.36 142.57 108.4 142.51C109.47 141.15 114.16 142.22 116.68 142.3C117.01 140.92 117.23 139.75 117.23 139.75L107.3 141.07Z" />
			<path id="Path 25979" class="shp1" d="M59.35 154.36C60.02 154.33 60.7 154.37 61.37 154.48C62.09 154.73 63.37 150.36 63.37 150.36L61.45 149.91L66.69 149.68L66.94 148.24C66.94 148.24 65.24 148.4 62.57 148.61C62.02 148.93 61.52 149.34 61.11 149.83L61.03 149.93C59.92 151.3 59.5 153.06 59.35 154.36Z" />
			<path id="Path 25980" class="shp1" d="M100.64 211.61L102.11 212.59C104.3 212.19 106.3 211.57 106.54 210.59C106.54 210.57 106.54 210.56 106.54 210.54C106.07 210.18 105.76 209.91 105.76 209.91L100.64 211.61Z" />
			<path id="Path 25981" class="shp1" d="M96.29 213.21C98.23 213.11 100.16 212.91 102.07 212.59C100.93 212.28 99.77 212.04 98.6 211.87C97.17 211.72 96.44 212.93 96.29 213.21Z" />
			<path id="Path 25982" class="shp4" d="M59.51 156.05C59.51 157.11 62.43 157.79 62.43 157.79L71.35 165.73C71.35 165.73 76.95 168.23 80.52 171.84C84.08 175.44 87.22 172.35 87.22 172.35C91 171.41 101.88 158.25 101.88 158.25C101.88 158.25 102.13 173.28 102.64 174.39C103.15 175.49 102.47 178.5 102.18 179.78C101.99 180.84 101.92 181.92 101.96 183C101.96 183 97.89 198.58 98.23 199.94C98.57 201.3 96.02 207.67 96.02 207.67L96.02 212.97C96.02 212.97 106 212.59 106.55 210.34C107.1 208.09 104.04 207.11 104.04 207.11L104.04 206.56C106.04 205.54 106.42 198.54 106.42 198.54C106.42 198.54 109.39 189.88 109.82 188.44C110.24 187 109.82 184.83 109.82 184.83L110.11 182.96C110.11 182.96 110.75 181.69 110.75 181.43C110.83 180.79 111.08 180.17 111.47 179.65C111.94 179.1 110.96 177.78 110.96 177.78L111.81 175.57L111.81 173.16L113.81 164.37C113.81 164.37 115.89 154.14 115.17 150.78C114.45 147.43 116.02 145.73 116.02 145.73C112.61 147.52 110.89 143.55 110.33 141.84C110.19 141.4 110.12 141.1 110.12 141.1C110.12 141.1 105.44 139.38 101.08 139.79C100.2 139.86 99.32 140.05 98.49 140.34C93.65 142.08 92.88 149.3 92.88 149.3L88.6 155.84C86.39 161.65 83.08 162.24 83.08 162.24C83.08 162.24 75.31 157.03 75.08 156.77C74.86 156.51 71.9 155.24 71.9 155.24C71.55 154.62 71.02 154.14 70.37 153.84C69.35 153.42 69.27 151.84 69.27 151.84C69.14 148.15 66.98 147.85 66.98 147.85C59.46 147.22 59.51 154.99 59.51 156.05Z" />
			<path id="Rectangle 23384" class="shp12" d="M107.3 135.29L102.72 135.29L102.72 121.07L107.3 121.07L107.3 135.29Z" />
			<path id="Rectangle 23385" class="shp1" d="M107.3 135.29L102.72 135.29L102.72 121.07L107.3 121.07L107.3 135.29Z" />
			<path id="Path 25983" class="shp1" d="M114.73 91.99C114.73 92 114.73 92.01 114.73 92.02C114.76 92.1 114.81 92.18 114.86 92.25L116.13 94.12L119.44 94.45L119.48 93.14C118.44 93.06 116.09 92.77 114.73 91.99Z" />
			<path id="Path 25984" class="shp12" d="M114.86 92.25C114.86 92.25 115.03 99.72 113.16 100.74C111.29 101.76 110.57 107.07 110.57 107.07C110.57 107.07 116.23 110.79 117.49 112.43C118.75 114.07 121.65 117.97 121.05 118.9C120.46 119.84 122.5 124.08 122.5 124.08C122.5 124.08 118.76 131.72 119.61 134.61C120.46 137.5 120.54 145.14 120.54 145.14L122.16 145.14C122.16 145.14 121.65 138.85 121.65 136.31C121.65 133.76 123.35 124.67 123.35 124.67C123.35 124.67 124.11 115.76 123.35 115.51C122.58 115.26 118.08 111.69 117.74 110.07C117.4 108.46 120.12 93.42 120.12 93.42C120.12 93.42 116.64 93.27 114.86 92.25Z" />
			<path id="Path 25985" class="shp1" d="M102.63 119.76C102.79 120.79 103.17 121.79 103.74 122.67L106.88 122.13C106.88 122.13 116.3 120.01 118.25 119.84C119.42 119.68 120.57 119.35 121.66 118.86C120.91 116.22 119.45 113.83 117.44 111.95L116.25 110.84C114.49 109.21 112.44 107.9 110.22 106.99C110.36 107.11 120.25 115.55 118.08 117.2C115.92 118.86 110.09 114.83 110.09 114.83L103.46 109.13L103.22 108.92L102.84 109.52C103.03 109.6 103.22 109.69 103.41 109.79C105.66 111.03 107.34 113.12 108.07 115.59C109.43 120.17 102.63 119.76 102.63 119.76Z" />
			<path id="Path 25986" class="shp14" d="M100.59 140.98C100.59 140.98 106.88 144.46 108.4 142.51C108.73 142.08 109.44 141.89 110.31 141.84C110.17 141.4 110.1 141.11 110.1 141.11C110.1 141.11 105.42 139.38 101.06 139.8C100.78 140.52 100.59 140.98 100.59 140.98Z" />
			<path id="Path 25987" class="shp15" d="M103.48 108.93L110.35 114.84C110.35 114.84 116.16 118.88 118.35 117.21C120.53 115.55 110.48 107 110.48 107L110.48 107C112.7 107.91 114.74 109.22 116.51 110.84L117.7 111.95C120.85 114.87 121.56 114.87 121.66 119.15C121.69 120.2 121.33 121.72 121.05 121.99C120.04 122.99 119.32 130.25 119.48 131.1C119.64 131.95 117.58 139.28 118.25 141.32C118.91 143.36 109.92 140.3 108.4 142.25C106.88 144.21 100.59 140.73 100.59 140.73C100.59 140.73 104.07 131.81 104.92 131.22C105.77 130.62 106.79 126.04 104.92 123.92C103.06 121.79 102.89 119.76 102.89 119.76C102.89 119.76 109.68 120.17 108.32 115.6C107.55 112.91 105.64 110.69 103.1 109.53L103.48 108.93Z" />
			<path id="Path 25988" class="shp1" d="M112.65 123.96C112.65 123.96 110.02 128.92 106.61 130.21C106.5 130.25 106.39 130.29 106.28 130.32C102.72 131.41 112.92 125.5 112.65 123.96Z" />
			<path id="Path 25989" class="shp13" d="M75.81 80.02C75.81 80.02 77.08 83.25 78.1 84.35C79.12 85.46 86.67 96.49 86.67 96.49L87.31 97.83L87.86 98.96L92.7 98.45L93.03 96.5L92.85 96.27C92.36 95.69 91.03 94.13 90.15 93.44C89.04 92.6 86.83 89.8 86.83 89.8C86.83 89.8 79.96 82.66 79.45 80.71C78.94 78.76 72.06 67.05 70.54 69.08C69.01 71.1 75.81 80.02 75.81 80.02Z" />
			<g id="Group 26646" style="opacity: 0.102">
				<path id="Path 25990" class="shp7" d="M89.85 132.53C89.27 132.47 88.68 132.56 88.14 132.77C86.94 133.35 86.71 134.93 86.05 136.09C85.27 137.44 83.78 138.27 82.26 138.58C81.95 138.64 81.64 138.68 81.34 138.71C82.31 138.8 83.29 138.76 84.25 138.58C85.78 138.27 87.27 137.44 88.05 136.09C88.71 134.93 88.94 133.35 90.14 132.77C90.45 132.63 90.79 132.55 91.14 132.54L89.85 132.53Z" />
				<path id="Path 25991" class="shp7" d="M101.68 106.98C101.68 104.33 103.4 102.05 104.82 99.81C106.24 97.58 107.43 94.75 106.31 92.36C105.35 90.31 99.57 87.56 96.23 88.1C99.5 88.53 103.52 90.68 104.31 92.36C105.43 94.75 104.24 97.58 102.82 99.81C101.4 102.05 99.67 104.33 99.68 106.98C99.68 110.39 99.45 112.97 98.51 116.27C98.24 117.22 100.84 118.66 100.44 119.56C99.09 122.55 99.72 126.01 99.51 129.29C99.5 129.93 99.35 130.56 99.05 131.13C98.39 132.22 97.02 132.51 95.69 132.57L96.85 132.57C98.41 132.57 100.25 132.45 101.05 131.12C101.35 130.55 101.5 129.92 101.51 129.28C101.72 126 101.09 122.54 102.44 119.55C102.85 118.65 100.24 117.21 100.51 116.26C101.45 112.98 101.69 110.39 101.68 106.98Z" />
			</g>
			<path id="Path 25992" class="shp1" d="M87.31 97.82L87.86 98.95L92.7 98.45L93.03 96.49L92.85 96.27C92.33 96.52 88.46 98.38 87.31 97.82Z" />
			<path id="Path 25993" class="shp1" d="M105.18 110.59C105.18 110.59 103.99 108.72 103.31 109.23C102.63 109.73 102.37 107.7 101.98 108.04C101.59 108.38 100.45 109.32 99.98 108C99.61 106.95 95.59 100.29 93.96 97.61C93.54 96.92 93.27 96.49 93.27 96.49C93.27 96.49 88.69 98.79 87.59 98.02L87.59 99.63L88.52 99.72L93.52 109.05C93.52 109.05 95.09 111.55 94.98 112.42C94.88 113.29 97 117.11 97.34 117.37C97.68 117.62 101.33 121.87 101.33 121.87C101.33 121.87 103.2 131.04 101.59 133.58C99.97 136.13 97.17 138 97.17 138C97.17 138 96.33 140.46 96.45 140.72C96.58 140.97 95.47 142.07 95.98 142.41C96.49 142.75 97.17 145.13 97.17 145.13C97.17 145.13 99.55 141.31 100.84 140.72C102.12 140.12 103.77 132.31 103.77 132.31C103.77 132.31 104.24 127.71 104.27 124.73C104.31 121.76 104.16 110.59 105.18 110.59Z" />
			<path id="Path 25994" class="shp12" d="M104.92 110.59C104.92 110.59 103.74 108.72 103.06 109.23C102.38 109.73 102.11 107.7 101.73 108.04C101.34 108.38 100.2 109.32 99.73 108C99.35 106.95 95.33 100.29 93.7 97.61L93.02 96.49C93.02 96.49 88.44 98.79 87.33 98.02L87.33 99.63L88.27 99.72L93.26 109.05C93.26 109.05 94.84 111.55 94.73 112.42C94.62 113.29 96.73 117.11 97.08 117.37C97.44 117.62 101.08 121.87 101.08 121.87C101.08 121.87 102.95 131.04 101.34 133.58C100.49 134.86 99.45 136.01 98.26 136.99C97.27 137.81 96.56 138.94 96.26 140.19C96.21 140.36 96.19 140.55 96.2 140.73C96.33 140.98 95.22 142.08 95.73 142.42C96.24 142.76 96.93 145.15 96.93 145.15C96.93 145.15 99.31 141.33 100.59 140.74C101.88 140.14 103.53 132.33 103.53 132.33C103.53 132.33 103.99 127.73 104.03 124.75C104.07 121.78 103.92 110.59 104.92 110.59Z" />
			<path id="Path 25995" class="shp1" d="M93.29 149.22C93.29 149.22 96.86 149.88 98.29 150.91C99.72 151.94 92.86 149.3 92.86 149.3L93.29 149.22Z" />
			<path id="Path 25996" class="shp1" d="M101.87 158.25C101.87 158.25 105.59 161.36 104.92 164.16C104.26 166.96 102.54 174.01 102.54 174.01L101.87 158.25Z" />
			<path id="Path 25997" class="shp1" d="M69.33 152.29C69.33 152.29 64.09 152.87 64.43 153.55C64.77 154.22 69.33 152.92 69.33 152.92L69.33 152.29Z" />
			<path id="Path 25998" class="shp1" d="M109.59 178.08C109.59 178.08 109.92 178.5 107.97 178.08C106.03 177.66 107.47 176.35 107.47 176.35L109.59 178.08Z" />
			<path id="Path 25999" class="shp1" d="M108.92 183.94C108.92 183.94 106.26 184.36 104.83 183.94C103.4 183.51 108.92 183.94 108.92 183.94Z" />
			<path id="Path 26000" class="shp1" d="M103.44 206.86C103.44 206.86 102.97 206.35 100.64 207.28C98.3 208.22 97.37 208.26 96.69 207.95C96.01 207.64 103.44 206.86 103.44 206.86Z" />
			<path id="Path 26001" class="shp1" d="M106.03 151.57L102.72 156.18C102.72 156.18 104.5 152.14 106.03 151.57Z" />
			<path id="Path 26002" class="shp1" d="M99.59 109.23C99.59 109.23 99.45 110.76 97.32 111.35C95.18 111.95 94.78 112.43 94.78 112.43" />
			<path id="Path 26003" class="shp1" d="M94.05 98.15C94.05 98.15 91.23 100.14 88.29 99.72" />
			<path id="Path 26004" class="shp1" d="M96.19 140.94C96.19 140.94 97.01 141.45 98.99 139.19" />
			<path id="Path 26005" class="shp1" d="M116.7 116.99C116.78 116.58 116.5 116.19 116.23 115.87L115.68 115.21C115.57 115.07 115.45 114.94 115.31 114.83C114.98 114.58 114.55 114.5 114.21 114.27" />
			<path id="Path 26006" class="shp0" d="M295.54 0.88C295.54 0.88 267.5 -0.81 270.79 18.84C270.79 18.84 270.13 22.31 273.28 23.89C273.28 23.89 273.33 22.43 276.16 22.93C277.17 23.1 278.19 23.14 279.21 23.08C280.58 22.98 281.89 22.44 282.93 21.54L282.93 21.54C282.93 21.54 290.82 18.28 293.88 5.4C293.88 5.4 296.15 2.58 296.06 1.86L291.33 3.88C291.33 3.88 292.95 7.3 291.66 10.14C291.66 10.14 291.51 4.01 290.6 4.14C290.41 4.17 288.14 5.32 288.14 5.32C288.14 5.32 290.92 11.27 288.82 15.59C288.82 15.59 289.62 8.26 287.27 5.75L283.94 7.7C283.94 7.7 287.19 13.84 284.98 18.85C284.98 18.85 285.55 11.16 283.24 8.17L280.22 10.52C280.22 10.52 283.27 16.58 281.41 20.74C281.41 20.74 281.17 11.79 279.57 11.11C279.57 11.11 276.92 13.44 276.52 14.4C276.52 14.4 278.61 18.79 277.31 21.11C277.31 21.11 276.52 15.15 275.87 15.11C275.87 15.11 273.23 19.06 272.96 21.78C272.96 21.78 273.07 17.75 275.23 14.74C275.23 14.74 272.68 15.18 271.2 16.83C271.2 16.83 271.61 14.04 275.88 13.79C275.88 13.79 278.05 10.79 278.63 10.61C278.63 10.61 274.39 10.26 271.82 11.4C271.82 11.4 274.08 8.76 279.41 9.96L282.39 7.53C282.39 7.53 276.8 6.76 274.43 7.61C274.43 7.61 277.16 5.28 283.2 6.97L286.44 5.04C286.44 5.04 281.67 4.01 278.84 4.37C278.84 4.37 281.83 2.75 287.39 4.51L289.72 3.46C289.72 3.46 286.23 2.78 285.21 2.67C284.19 2.56 284.14 2.28 284.14 2.28C286.35 1.91 288.62 2.16 290.69 3.01C290.69 3.01 295.62 1.19 295.54 0.88Z" />
			<path id="Path 26007" class="shp0" d="M260.95 5.88C260.95 5.88 248.29 5.11 249.78 13.99C249.78 13.99 249.48 15.56 250.9 16.28C250.9 16.28 250.92 15.61 252.2 15.84C252.65 15.92 253.12 15.94 253.58 15.91C254.2 15.87 254.79 15.62 255.26 15.21L255.26 15.21C255.26 15.21 258.82 13.74 260.21 7.92C260.21 7.92 261.23 6.65 261.19 6.32L259.05 7.23C259.05 7.23 259.78 8.78 259.21 10.06C259.21 10.06 259.14 7.29 258.73 7.36C258.65 7.36 257.62 7.89 257.62 7.89C257.62 7.89 258.88 10.58 257.93 12.53C257.93 12.53 258.29 9.22 257.22 8.09L255.72 8.97C255.72 8.97 257.19 11.74 256.19 14.01C256.19 14.01 256.45 10.53 255.4 9.18L254.04 10.26C254.04 10.26 255.42 12.99 254.58 14.87C254.58 14.87 254.47 10.82 253.74 10.52C253.74 10.52 252.55 11.57 252.37 12.01C252.37 12.01 253.31 14.01 252.73 15.04C252.73 15.04 252.37 12.34 252.06 12.33C252.06 12.33 250.88 14.12 250.75 15.33C250.81 14.2 251.16 13.1 251.77 12.15C251.09 12.28 250.45 12.61 249.95 13.09C249.95 13.09 250.14 11.83 252.07 11.72C252.07 11.72 253.07 10.37 253.31 10.29C253.31 10.29 251.39 10.13 250.23 10.64C250.23 10.64 251.25 9.45 253.67 9.98L255 8.88C255 8.88 252.47 8.54 251.4 8.91C251.4 8.91 252.63 7.86 255.36 8.63L256.83 7.75C256.83 7.75 254.68 7.28 253.39 7.45C253.39 7.45 254.75 6.72 257.26 7.51L258.31 7.04C258.31 7.04 256.73 6.73 256.26 6.68C255.8 6.64 255.78 6.51 255.78 6.51C256.78 6.34 257.8 6.46 258.74 6.84C258.74 6.84 260.99 6.02 260.95 5.88Z" />
			<path id="Ellipse 345" class="shp16" d="M305.16 217.59C297.76 217.59 291.77 216.58 291.77 215.33C291.77 214.07 297.76 213.06 305.16 213.06C312.57 213.06 318.55 214.07 318.55 215.33C318.55 216.58 312.57 217.59 305.16 217.59Z" />
			<path id="Path 26008" class="shp16" d="M310.7 211.62C311.31 211.12 311.76 210.45 311.98 209.69C312.14 208.93 311.82 208.03 311.08 207.73C310.26 207.42 309.39 207.99 308.73 208.56C308.06 209.13 307.3 209.79 306.43 209.67C307.34 208.84 307.75 207.6 307.51 206.4C307.48 206.15 307.37 205.92 307.21 205.73C306.76 205.25 305.93 205.45 305.39 205.84C303.66 207.06 303.17 209.41 303.16 211.53C302.99 210.76 303.14 209.97 303.13 209.19C303.13 208.42 302.91 207.53 302.25 207.12C301.84 206.9 301.38 206.79 300.92 206.81C300.14 206.78 299.27 206.86 298.74 207.43C298.08 208.13 298.25 209.32 298.83 210.09C299.4 210.86 300.28 211.36 301.08 211.9C301.73 212.28 302.28 212.8 302.69 213.43C302.74 213.52 302.78 213.61 302.81 213.71L307.69 213.71C308.79 213.15 309.8 212.45 310.7 211.62L310.7 211.62Z" />
		</g>
	</g>
</svg>