<svg version="1.2" baseProfile="tiny-ps" xmlns="http://www.w3.org/2000/svg" viewBox="0 0 64 53" width="64" height="53">
	<title>Web 1920 – 4</title>
	<style>
		tspan { white-space:pre }
		.shp0 { opacity: 0.698;fill: none;stroke: #000000;stroke-width: 2 } 
	</style>
	<g id="Web 1920 – 4">
		<path id="Icon awesome-chalkboard-teacher" class="shp0" d="M21.91 35.12C21.69 35.12 21.48 35.15 21.27 35.22C20.11 35.6 18.89 35.84 17.6 35.84C16.31 35.84 15.09 35.6 13.92 35.22C13.72 35.15 13.5 35.12 13.29 35.12C7.72 35.12 3.2 39.65 3.23 45.23C3.25 47.59 5.18 49.49 7.54 49.49L27.66 49.49C30.01 49.49 31.95 47.59 31.97 45.23C31.99 39.65 27.48 35.12 21.91 35.12ZM17.6 32.25C22.36 32.25 26.22 28.39 26.22 23.63C26.22 18.87 22.36 15.01 17.6 15.01C12.84 15.01 8.98 18.87 8.98 23.63C8.98 28.39 12.84 32.25 17.6 32.25ZM56.39 3.51L21.91 3.51C19.53 3.51 17.6 5.51 17.6 7.97L17.6 12.13C19.7 12.13 21.65 12.74 23.35 13.73L23.35 9.26L54.95 9.26L54.95 35.12L49.2 35.12L49.2 29.37L37.71 29.37L37.71 35.12L30.87 35.12C32.58 36.62 33.84 38.6 34.43 40.87L56.39 40.87C58.76 40.87 60.7 38.87 60.7 36.41L60.7 7.97C60.7 5.51 58.76 3.51 56.39 3.51Z" />
	</g>
</svg>